<svg xmlns="http://www.w3.org/2000/svg" viewBox="0 0 500 500"><title>main</title><g id="Calque_4" data-name="Calque 4"><circle cx="334.2" cy="192.2" r="114.9" style="fill:#647dee"/><circle cx="194" cy="332.5" r="114.9" style="fill:#ff725e"/></g><g id="objects"><g style="opacity:0.5"><circle cx="292.3" cy="98.7" r="44.9" transform="translate(15.8 235.6) rotate(-45)" style="fill:#ebebeb"/><path d="M255,98.7a37.4,37.4,0,1,1,37.3,37.4A37.3,37.3,0,0,1,255,98.7Zm6.4,0a31,31,0,1,0,30.9-30.9A31,31,0,0,0,261.4,98.7Z" style="fill:#f5f5f5"/><path d="M278.8,97.7a13.8,13.8,0,1,1,13.8,13.8A13.8,13.8,0,0,1,278.8,97.7Zm6.4,0a7.4,7.4,0,1,0,7.4-7.3A7.4,7.4,0,0,0,285.2,97.7Z" style="fill:#f5f5f5"/><polygon points="292.6 97.7 310 97.7 306.9 103.1 347.8 121.9 346.4 124.2 305.4 105.6 302.6 111 292.6 97.7" style="fill:#e0e0e0"/><path d="M347.8,121.9l.5-.5a8.3,8.3,0,0,1,8.1-2l16.3,4.8-9.1,3.9,3.7,9.8L352,132.4a8.4,8.4,0,0,1-5.6-8.2h0Z" style="fill:#e0e0e0"/><path d="M79.3,180.4a37.6,37.6,0,0,1,6.2-2.7l1.3-6.1,10.4-.2,1.5,6.1A24.4,24.4,0,0,1,105,180l5.3-3.5,7.4,7.3-3.2,5.3a25.9,25.9,0,0,1,2.7,6.2l6.1,1.3.2,10.4-6.1,1.5a24.4,24.4,0,0,1-2.5,6.3l3.5,5.2-7.2,7.5-5.4-3.2a25.9,25.9,0,0,1-6.2,2.7l-1.3,6.1-10.4.2-1.5-6.1a24.4,24.4,0,0,1-6.3-2.5l-5.2,3.5-7.5-7.3,3.2-5.3a37.6,37.6,0,0,1-2.7-6.2l-6.1-1.3-.2-10.4,6.1-1.5a28.5,28.5,0,0,1,2.5-6.3l-3.4-5.2,7.2-7.5,5.3,3.2Zm5.6,13.9a11.1,11.1,0,0,0,16,15.5,11.1,11.1,0,0,0-.3-15.8A11,11,0,0,0,84.9,194.3Z" style="fill:#e0e0e0"/><path d="M60.9,240.3a13.4,13.4,0,0,1,3.7-1.6l.8-3.7h6.2l.9,3.6a25,25,0,0,1,3.8,1.5l3.1-2,4.5,4.3-2,3.2a17.6,17.6,0,0,1,1.7,3.7l3.6.8v6.2l-3.6.9a13.7,13.7,0,0,1-1.5,3.8l2.1,3.1-4.4,4.5-3.2-2a12.2,12.2,0,0,1-3.7,1.6l-.7,3.7H66l-.9-3.6a13.1,13.1,0,0,1-3.7-1.5l-3.2,2.1-4.4-4.4,1.9-3.2a15.3,15.3,0,0,1-1.6-3.7l-3.7-.8v-6.2l3.6-.9a23.9,23.9,0,0,1,1.5-3.7l-2-3.2,4.3-4.5,3.2,2Zm3.3,8.3a6.6,6.6,0,0,0,.2,9.4,6.6,6.6,0,0,0,9.2-9.6A6.6,6.6,0,0,0,64.2,248.6Z" style="fill:#ebebeb"/><path d="M64.2,248.6a6.1,6.1,0,0,1,1.3-1.1,6.4,6.4,0,0,1,4.3-1,6.6,6.6,0,0,1,5.4,3.7,6,6,0,0,1,.6,1.9,6.7,6.7,0,0,1,0,2A7.4,7.4,0,0,1,74,258a8.2,8.2,0,0,1-3.8,2,7.4,7.4,0,0,1-2.1,0l-1.9-.5a6.9,6.9,0,0,1-2.7-2.3,6.3,6.3,0,0,1-1.2-3,6,6,0,0,1,.9-4.3,3.2,3.2,0,0,1,1-1.3c.1,0-.4.4-.9,1.3a6.7,6.7,0,0,0-.7,4.3,6.6,6.6,0,0,0,1.1,2.8,6.4,6.4,0,0,0,2.7,2.1,3.5,3.5,0,0,0,1.8.5h1.9a6.7,6.7,0,0,0,3.6-1.9,6.4,6.4,0,0,0,1.7-3.6,6.7,6.7,0,0,0,0-2,4.9,4.9,0,0,0-.6-1.7,5.7,5.7,0,0,0-2.2-2.6,6.6,6.6,0,0,0-2.8-1.1,7.3,7.3,0,0,0-4.3.9Z" style="fill:#ebebeb"/><path d="M60.9,240.3h-.2l-.6-.4-2.4-1.4h0l-4.3,4.5h.1l2,3.1h0a14.2,14.2,0,0,0-1.4,3.8H54l-3.7.9v-.2c.1,2,.1,4.1.2,6.2h-.2l3.7.8h.1a18.9,18.9,0,0,0,1.6,3.6h0l-1.9,3.2v-.2l4.5,4.3h-.3l3.2-2.1h.2a11.1,11.1,0,0,0,3.7,1.5h.1l.9,3.7-.2-.2h6.3l-.2.2c.2-1.2.5-2.4.7-3.7H73a16.5,16.5,0,0,0,3.6-1.6h.2l3.2,1.9h-.2l4.3-4.4v.2l-2-3.1H82a13.7,13.7,0,0,0,1.5-3.8h.1l3.7-.9v.2c-.1-2.1-.1-4.2-.1-6.2v.2l-3.7-.8h-.1a13.8,13.8,0,0,0-1.6-3.7h0l1.9-3.2v.2l-4.5-4.3h.2l-3.2,2h-.1a14,14,0,0,0-3.7-1.4h-.1c-.3-1.4-.6-2.6-.9-3.7h-6c-.3,1.5-.6,2.7-.8,3.7h-.1a18,18,0,0,0-2.8,1.1l-.7.4h0l.7-.4a16.4,16.4,0,0,1,2.8-1.2h0l.7-3.7h6.4q.5,1.7.9,3.6h-.1a13.7,13.7,0,0,1,3.8,1.5h-.1l3.1-2.1h.2l4.5,4.3h0l-1.9,3.2v-.2a16.1,16.1,0,0,1,1.6,3.8V249l3.7.8h.1v.2c0,2,.1,4.1.1,6.2h-.1l-3.7.9.2-.2a26.2,26.2,0,0,1-1.5,3.9v-.2l2,3.1h0l-4.3,4.5h-.2l-3.3-1.9h.2a14.8,14.8,0,0,1-3.7,1.6h.1c-.3,1.2-.5,2.5-.8,3.7H65.9a28.3,28.3,0,0,1-.9-3.7v.2a18.8,18.8,0,0,1-3.8-1.5h.2l-3.2,2h-.2l-4.5-4.3h0l2-3.3v.2a15.3,15.3,0,0,1-1.7-3.7h.2l-3.7-.8h-.1v-.2c-.1-2.1-.1-4.2-.1-6.2h.1l3.6-.9h-.1a18.8,18.8,0,0,1,1.5-3.8h0l-2-3.1h0l4.3-4.5h.1l2.4,1.5.6.4Z" style="fill:#ebebeb"/><polygon points="414.9 227.9 415 211.5 430.8 215.3 414.9 227.9" style="fill:#f5f5f5"/><rect x="428.6" y="215.9" width="9.2" height="37.41" transform="translate(-52.2 318.6) rotate(-38.2)" style="fill:#f5f5f5"/><polygon points="394.2 268.1 396.4 234.8 428 244.5 394.2 268.1" style="fill:#ebebeb"/><rect x="421.2" y="245.9" width="18.8" height="75.93" transform="translate(-85 297.1) rotate(-34.9)" style="fill:#ebebeb"/></g></g><g id="bubble"><path d="M377.1,188.2l11.6-6.7a30.8,30.8,0,0,0,16.4,4.7A31.5,31.5,0,1,0,380.4,174h0Z" style="fill:#fff"/><path d="M377.1,188.2c.2-.9,1.1-5.3,3.2-14.2v-.2h.2l-.2.2a31,31,0,0,1-6.4-15,27.5,27.5,0,0,1-.2-5c0-.8.1-1.7.1-2.6a23.4,23.4,0,0,0,.4-2.6,31.8,31.8,0,0,1,4.2-10.6,31.1,31.1,0,0,1,8.4-9,31.5,31.5,0,0,1,12.1-5.3,31.1,31.1,0,0,1,13.9.4,29.6,29.6,0,0,1,12.9,6.7,31.9,31.9,0,0,1,8.7,12,31.5,31.5,0,0,1,2.1,14.1,29.8,29.8,0,0,1-3.8,12.9A32,32,0,0,1,414.4,185a37.1,37.1,0,0,1-10.2,1.3,30.3,30.3,0,0,1-15.5-4.7h.1c-7.4,4.2-11,6.1-11.7,6.6l11.6-6.8h.1a31.2,31.2,0,0,0,15.4,4.6,31.3,31.3,0,0,0,28.1-16.1,30.7,30.7,0,0,0,3.7-12.7,30.4,30.4,0,0,0-10.6-25.7,29.3,29.3,0,0,0-12.7-6.6,30.3,30.3,0,0,0-13.7-.4,31.4,31.4,0,0,0-20.2,14,32.5,32.5,0,0,0-4.2,10.4,25.1,25.1,0,0,1-.4,2.7c0,.8-.1,1.7-.1,2.5a26.1,26.1,0,0,0,.2,4.9,30.6,30.6,0,0,0,6.2,14.9l.6.8-.8-.6h.2C378.3,182.9,377.3,187.3,377.1,188.2Z" style="fill:#263238"/><path d="M400,152h1.8l4-5.6v-3.6s2.9-.2,2.5,4.6.1,3.6.1,3.6,6,0,6.5.5.5,6.4.6,9.6a3.6,3.6,0,0,1-2.5,3.5h-.7c-1.5,0-9.1-1.2-9.1-1.2H400Z" style="fill:#ff725e"/><polygon points="394.8 151 395.9 163.5 399 163.5 399 151.3 394.8 151" style="fill:#ff725e"/></g><g id="Characters"><path d="M148.2,207.2l-15,5.5-7.9,16.6c-.3,3.5-9,38.2-9,38.2l-8.6,30.9c16.5,7.6,38.5,18.4,60.5,17.5l2.8-26.5,15.1-57.7-11.5-22.8-4-.5Z" style="fill:#ff725e"/><path d="M78.5,433.1,67.2,447.9s11.2,16.4,9.3,19.3L47.2,446.4l16.6-23.7Z" style="fill:#455a64"/><g style="opacity:0.6000000000000001"><path d="M59,440.1a1.6,1.6,0,0,0-1.8.8,1.4,1.4,0,0,0,.7,1.8,1.6,1.6,0,0,0,2-.8,1.5,1.5,0,0,0-1-1.8" style="fill:#fff"/></g><g style="opacity:0.6000000000000001"><path d="M47.2,446.4l1.7-2.4,27.5,20.9s.9,1.5.1,2.3Z" style="fill:#fff"/></g><path d="M67.8,448.1c-.1.1-.9-.3-1.9-.4a11.7,11.7,0,0,0-2,.2c-.1-.2.7-.9,2-.8S67.9,448,67.8,448.1Z" style="fill:#263238"/><path d="M69.9,451.5c0,.2-.8,0-1.7.3s-1.6.8-1.7.6.3-.9,1.5-1.2S70,451.4,69.9,451.5Z" style="fill:#263238"/><path d="M69.1,456.5c-.2-.1.1-1,1-1.5s1.9-.3,1.8-.2-.7.3-1.5.7Z" style="fill:#263238"/><path d="M70,444.4c-.2.1-.7-.6-1.6-1.1s-1.6-.7-1.6-.9a2.5,2.5,0,0,1,2,.4A2.2,2.2,0,0,1,70,444.4Z" style="fill:#263238"/><g style="opacity:0.30000000000000004"><polygon points="73.3 440.3 71.3 442.9 57 432.5 58.7 430.1 73.3 440.3"/></g><path d="M72.2,441.4c-.1.1-.7-.3-1.5-1.1l-1.2-1.5a3.7,3.7,0,0,1-.5-1.1,1.4,1.4,0,0,1-.2-.6.7.7,0,0,1,.5-.8.6.6,0,0,1,.8.1,1.1,1.1,0,0,1,.5.4l.7,1a5.6,5.6,0,0,1,.7,1.9,3.6,3.6,0,0,1,.1,1.8,9.5,9.5,0,0,1-.5-1.7,5.1,5.1,0,0,0-.8-1.7l-.6-.9c-.3-.3-.5-.4-.7-.4s-.1.1-.1.2.1.3.1.5l.5,1c.3.6.7,1.1,1,1.6Z" style="fill:#263238"/><path d="M71.9,441.5c-.1,0,0-.8.6-1.7a5.8,5.8,0,0,1,1.3-1.5l1-.6a1.6,1.6,0,0,1,1.5-.1.8.8,0,0,1,.3.9,1.4,1.4,0,0,1-.2.6,3.6,3.6,0,0,1-.7,1,4.8,4.8,0,0,1-1.7,1.1c-1.1.3-1.9.1-1.8,0a10.2,10.2,0,0,0,1.6-.4,4.8,4.8,0,0,0,1.5-1.1,1.9,1.9,0,0,0,.5-.9c.2-.3.3-.6.1-.7s-.5,0-.8.1l-.9.6a8.7,8.7,0,0,0-1.4,1.2A15.6,15.6,0,0,0,71.9,441.5Z" style="fill:#263238"/><path d="M167.8,443l-6.5,16.4s18.7,6.8,19,10.2l-36.1.3,5.6-26.8Z" style="fill:#455a64"/><g style="opacity:0.6000000000000001"><path d="M150.2,457.9a1.5,1.5,0,0,0-1,1.7,1.3,1.3,0,0,0,1.6,1,1.6,1.6,0,0,0,1.1-1.8c-.3-.6-1.2-1.2-1.9-.8" style="fill:#fff"/></g><g style="opacity:0.6000000000000001"><path d="M144.2,469.9l.6-2.9,34,.8s1.6.7,1.5,1.8Z" style="fill:#fff"/></g><path d="M161.9,459.2c0,.2-.9.3-1.7.9s-1.4,1.3-1.5,1.2.1-1.1,1.1-1.8A2.4,2.4,0,0,1,161.9,459.2Z" style="fill:#263238"/><path d="M165.7,460.8a8.3,8.3,0,0,0-1.3,1.2c-.6.7-.8,1.5-1,1.5a2.1,2.1,0,0,1,.5-1.9C164.7,460.7,165.7,460.6,165.7,460.8Z" style="fill:#263238"/><path d="M167.9,465.3c-.2,0-.4-.9,0-1.8s1.3-1.4,1.3-1.3-.4.7-.7,1.5S168,465.2,167.9,465.3Z" style="fill:#263238"/><path d="M163.3,455.9c-.1.1-.9-.1-1.9,0s-1.8.4-1.8.2.6-.8,1.8-.8S163.4,455.7,163.3,455.9Z" style="fill:#263238"/><path d="M163.6,453.7c0,.1-.7.2-1.8,0a9,9,0,0,1-1.9-.5l-1-.6-.6-.4a.6.6,0,0,1,0-.9c.1-.3.5-.4.7-.4h.7l1.1.4a5.6,5.6,0,0,1,1.7,1.1,4.2,4.2,0,0,1,1.1,1.5l-1.4-1.2-1.6-.9-1-.3c-.4-.1-.7-.1-.8.1s-.1.1,0,.2l.4.3,1,.6,1.7.6Z" style="fill:#263238"/><path d="M163.6,453.7c-.1.1-.4-.6-.5-1.7a7.1,7.1,0,0,1,.2-2,5.4,5.4,0,0,1,.5-1.1,1.5,1.5,0,0,1,1.1-.9.8.8,0,0,1,.8.5c.1.2.1.4.2.6v1.3a3.3,3.3,0,0,1-.8,1.8c-.7,1-1.4,1.2-1.4,1.1s.5-.4,1.1-1.3a3.8,3.8,0,0,0,.5-1.7,3.4,3.4,0,0,0,0-1c-.1-.4-.2-.7-.4-.7s-.4.3-.6.6a4.2,4.2,0,0,0-.4,1,6.5,6.5,0,0,0-.4,1.8C163.5,453,163.7,453.7,163.6,453.7Z" style="fill:#263238"/><path d="M210,147.7l-5.5,37.6-25.4,24.4,9.4,16.2L217.3,199a11.6,11.6,0,0,0,4.3-6.7V153.4l-.2-12.7Z" style="fill:#ffd6bd"/><path d="M108.4,295.5C107.6,297,94,367.8,94,367.8l-38.1,62,19.8,14.4,47.1-61.4,25.7-77.9Z" style="fill:#263238"/><path d="M160.1,302.8c1.1.8,30.3,61.6,29.9,66s-22.3,85.7-22.3,85.7l-22.4-4.1,13.8-79.2-26.3-37,8.6-33.6Z" style="fill:#263238"/><polygon points="190.6 196.2 176.2 208.2 173.5 208.7 184.4 232.7 204.4 216.5 190.6 196.2" style="fill:#647dee"/><path d="M148.2,207.2l-15,5.5-7.9,16.6c-.3,3.5-9,38.2-9,38.2l-8.6,30.9c16.5,7.6,38.5,18.4,60.5,17.5l2.8-26.5,15.2-58.2-11.6-22.3-4-.5Z" style="fill:#647dee"/><path d="M170.3,211.7c.3-2.8.6-5.1.7-5.4s9.5.4,11.4-8.8c.9-4.5,2-13.8,3-22.2a17.4,17.4,0,0,0-14.1-19.1l-.9-.2c-9.7-1.3-16.2,6.3-17.2,16l-4.7,35.5s9,8,14.2,10.6C169.5,221.5,170.3,211.7,170.3,211.7Z" style="fill:#ffd6bd"/><path d="M171,206.2a22.2,22.2,0,0,1-11.3-5.7s1.5,7.1,10.9,8.1Z" style="fill:#ffb394"/><path d="M183.1,179.6c-.2.2-1.4-.4-3.2-.2s-2.9.8-3.1.6.1-.3.6-.6a5.3,5.3,0,0,1,2.5-.7,6.4,6.4,0,0,1,2.6.3Q183.3,179.5,183.1,179.6Z" style="fill:#263238"/><path d="M168.6,178.4c-.2.1-1.1-1-2.7-1.6s-3-.6-3.1-.8.2-.3.8-.3a4.6,4.6,0,0,1,2.6.5,6.3,6.3,0,0,1,2.1,1.4C168.7,178.1,168.7,178.4,168.6,178.4Z" style="fill:#263238"/><path d="M167.7,180.8a.9.9,0,0,1-1.1.8,1,1,0,0,1-.9-1.1,1,1,0,0,1,1.2-.8A.9.9,0,0,1,167.7,180.8Z" style="fill:#263238"/><path d="M181.7,183.3a1,1,0,0,1-1.2.8.9.9,0,0,1-.8-1.1.9.9,0,0,1,1.1-.8A1,1,0,0,1,181.7,183.3Z" style="fill:#263238"/><path d="M171.7,188.5H174c.4.1.8.1.9-.2a2.3,2.3,0,0,0-.1-1.1c-.1-.9-.3-1.9-.5-3-.7-4.2-1.2-7.6-1-7.6s.9,3.3,1.6,7.6c.2,1,.3,2,.5,2.9a2,2,0,0,1-.1,1.5.8.8,0,0,1-.7.4H174C172.5,188.8,171.6,188.6,171.7,188.5Z" style="fill:#263238"/><path d="M169.1,171.3c-.2.3-1.4-.1-2.9-.2s-2.8.1-2.9-.3.2-.4.7-.7a5.4,5.4,0,0,1,2.3-.3,3.1,3.1,0,0,1,2.1.7C168.9,170.8,169.2,171.1,169.1,171.3Z" style="fill:#263238"/><path d="M183.5,175.9c-.2.3-1.4-.2-2.8-.4s-2.7-.2-2.9-.5a1.1,1.1,0,0,1,.8-.5,3.9,3.9,0,0,1,2.2-.1,4.6,4.6,0,0,1,2.1.8C183.4,175.5,183.6,175.8,183.5,175.9Z" style="fill:#263238"/><path d="M152.6,179c-.1-.1-6-3.1-7,3.2s5.6,6.1,5.6,5.9S152.6,179,152.6,179Z" style="fill:#ffd6bd"/><path d="M149.7,185.4c-.1-.1-.2,0-.4.1h-.8a3.1,3.1,0,0,1-.9-2.7,3.4,3.4,0,0,1,.6-1.5c.3-.5.6-.7,1-.7s.5.2.6.4v.3s.2-.1.1-.4a.6.6,0,0,0-.1-.4l-.6-.3a1.8,1.8,0,0,0-1.3.8,3.6,3.6,0,0,0-.7,1.7,2.8,2.8,0,0,0,1.2,3,.9.9,0,0,0,1,0Z" style="fill:#ffb394"/><path d="M169.6,192.7c.1-.1-1.1-.6-1.8-1.9a5.1,5.1,0,0,1-.7-1.8c-.1-.5-.2-.8-.3-.8s-.1.4-.1.9a5.8,5.8,0,0,0,.6,1.9,4.2,4.2,0,0,0,1.5,1.5C169.3,192.7,169.6,192.8,169.6,192.7Z" style="fill:#263238"/><path d="M198.7,168.4a1.5,1.5,0,0,0-.6-.9,3.9,3.9,0,0,0-2.3-.7,13.5,13.5,0,0,1-6.8-3,38.7,38.7,0,0,0-2.7-4.3c-2.5-3.2-4.6-5.5-6.9-6.7s-8.1-2.8-11.4-2.3-6.5,2.7-7.4,6a6.7,6.7,0,0,0-6.7-1.4h0c-2.6.6-4.3,3.1-5.3,5.5s-1.6,5-3.2,7.1c-.4.5-.8,1-.6,1.5a1.1,1.1,0,0,0,1,.6,2.1,2.1,0,0,0,1.2-.4c-.3.7-.7,1.3-1,1.9a5,5,0,0,0,2.7.1,39.2,39.2,0,0,0,1,6.9,4,4,0,0,1,2.5.9c.7.9,1,2.4,2.5,2s1.6-1.6,1.9-2.3a36.6,36.6,0,0,0,3.4-15.2,11.6,11.6,0,0,1,3.9-2.2h-.1c2.7-.6,5.7-1.1,8,.4s2.7,3.3,4,5a14.9,14.9,0,0,0,9.8,6.1c-.2,2.6-.8,6.3-1,8.9l2.7-3.9h0l.6-.9h0l.9-1.4h.1a1.6,1.6,0,0,0,2.6-1.9l-.7-.9a2.8,2.8,0,0,0,2.4,1,2.2,2.2,0,0,0,1.7-1.9,1.9,1.9,0,0,0-.9-1.5,5,5,0,0,0,3.4-.3C198.1,169.8,198.8,169.3,198.7,168.4Z" style="fill:#263238"/><path d="M163.4,157.9a4.4,4.4,0,0,0-1,.8,6,6,0,0,0-1.8,2.9,15.5,15.5,0,0,0-.5,2.3,24.6,24.6,0,0,0-.2,2.8c-.1.9-.1,2-.3,3a9.4,9.4,0,0,1-.4,1.6,3.4,3.4,0,0,1-.9,1.5,1.5,1.5,0,0,1-1.3.3,2.4,2.4,0,0,1-1.1-.8,4.6,4.6,0,0,1-.6-2.5h.2a9.4,9.4,0,0,1-1.4,1.9,2.8,2.8,0,0,1-1.9.7,1.7,1.7,0,0,1-1-.3,1.3,1.3,0,0,1-.5-.7.8.8,0,0,1-.1-.8.9.9,0,0,1,.3-.7h.1a5.2,5.2,0,0,1-2.1,1.2l-.7.2h0l.6-.2a5.5,5.5,0,0,0,2.1-1.3h.1a1.4,1.4,0,0,0-.2,1.4l.5.6a1.5,1.5,0,0,0,.9.2,2.2,2.2,0,0,0,1.8-.7,8.3,8.3,0,0,0,1.3-1.8v.1a3.8,3.8,0,0,0,.6,2.3,1.8,1.8,0,0,0,.9.8,1.3,1.3,0,0,0,1.2-.3,3.2,3.2,0,0,0,.8-1.4,8.3,8.3,0,0,0,.4-1.5c.2-1.1.2-2.1.3-3a23,23,0,0,1,.2-2.8,14.4,14.4,0,0,1,.5-2.4,6.9,6.9,0,0,1,1.9-2.9Z" style="fill:#455a64"/><path d="M191.1,170.4H191l-.2.2-.5.2-.6.2a7.2,7.2,0,0,1-4,.2,10.6,10.6,0,0,1-5.4-2.7,18.4,18.4,0,0,1-4.2-6.1l-1.4-3.6a15.4,15.4,0,0,0-1.7-3.1,7.6,7.6,0,0,0-2.5-1.9l-1.4-.3a2.8,2.8,0,0,0-1.3.1,4.1,4.1,0,0,0-2.1.9,4.5,4.5,0,0,0-1.2,1.2c-.5.8-.6,1.4-.7,1.4h.1v-.3l.5-1a7.1,7.1,0,0,1,1.2-1.3,6.8,6.8,0,0,1,2.1-1h1.4l1.5.3a6.7,6.7,0,0,1,2.5,2,12,12,0,0,1,1.8,3.1l1.4,3.6a21,21,0,0,0,4.1,6.1,11.2,11.2,0,0,0,5.3,2.7,8.3,8.3,0,0,0,4-.2Z" style="fill:#455a64"/><path d="M192.4,166.4l-.3.2-1.1.4-1.6.3h-2a5.9,5.9,0,0,1-2-.4,3.8,3.8,0,0,1-1.6-.6l-.9-.5-.4-.3,1.4.7,1.5.5,2,.4h2l1.6-.3Z" style="fill:#455a64"/><path d="M129.3,237.5s12.5,18.2,21.5,18H154l1.5-2.7s20,4.1,24.4,2.5l-24.7-9.2-4.8,2.7Z" style="opacity:0.30000000000000004"/><path d="M144.7,245.8s45,13.2,50.3,11.9,38.2-27.5,38.2-27.5l-7.4-9-34,18.8-40.7-12.9Z" style="fill:#ffd6bd"/><path d="M133.4,212.6s-7.5,1.6-8.6,14c-1.3,14.8,27.8,26.3,27.8,26.3L167,228.8Z" style="fill:#647dee"/><path d="M149,222.2h.3l1,.4,3.4,1.6,12.2,5.9h.2v.2l-9.8,17L153,253h-.3a61.3,61.3,0,0,1-11.5-5.2,43.8,43.8,0,0,1-8.1-6.2,46.5,46.5,0,0,1-6-6.9l.4.5,1.2,1.4a59.9,59.9,0,0,0,4.6,4.8,47.3,47.3,0,0,0,8.1,6,68.4,68.4,0,0,0,11.5,5.1h-.3l3.2-5.5,9.8-16.9v.3l-12.1-6-3.4-1.7-.9-.5Z" style="fill:#263238"/><path d="M184,225.9c-.2,0-1.4-3-3.2-6.6s-3.6-6.4-3.4-6.5l1.3,1.8c.7,1.1,1.6,2.7,2.5,4.5a41.3,41.3,0,0,1,2.1,4.7A20.1,20.1,0,0,1,184,225.9Z" style="fill:#263238"/><path d="M75.7,444.2l.2-.3.6-.9,2.5-3.3c2.2-2.8,5.3-7,9.1-12l30.4-39.8,4.1-5.2h-.1c5.7-17.1,10.7-32.3,14.4-43.3l4.3-12.9,1.2-3.4a9.2,9.2,0,0,0,.3-.9l.2-.3a.4.4,0,0,0-.1.3,4.6,4.6,0,0,0-.3.9c-.3.8-.6,2-1.1,3.5-1,3.1-2.4,7.5-4.2,12.9L123,382.9h0l-4.1,5.3L88.4,427.9l-9.3,12-2.5,3.2-.7.8Z" style="fill:#455a64"/><path d="M167.6,367a30.4,30.4,0,0,1-4.4,1.8c-2.5.9-4.5,1.5-4.6,1.3a30.4,30.4,0,0,1,4.4-1.8C165.5,367.4,167.5,366.8,167.6,367Z" style="fill:#455a64"/><path d="M167.3,373.3c0,.2-1.8-.2-3.9-.8a16.3,16.3,0,0,1-3.7-1.3c0-.2,1.7.2,3.9.8A19.1,19.1,0,0,1,167.3,373.3Z" style="fill:#455a64"/><path d="M168,285c0,.1-.4.3-1.1.8a37.8,37.8,0,0,1-3.3,1.9,64.2,64.2,0,0,1-11.6,4.7,63.9,63.9,0,0,1-12.4,2.1l-3.8.2h-1.4c0-.1.5-.1,1.4-.1l3.8-.3a72.3,72.3,0,0,0,12.2-2.3,74.4,74.4,0,0,0,11.6-4.5l3.4-1.8Z" style="fill:#263238"/><path d="M316.3,443.6l6.7,16.3s-18.6,7-18.8,10.4h36l-5.9-26.7Z" style="fill:#455a64"/><g style="opacity:0.6000000000000001"><path d="M334.1,458.3a1.6,1.6,0,0,1,1.1,1.7,1.5,1.5,0,0,1-1.7,1,1.5,1.5,0,0,1-1.1-1.7c.3-.7,1.2-1.3,1.9-.9" style="fill:#fff"/></g><g style="opacity:0.6000000000000001"><path d="M340.2,470.2l-.6-2.9-34,1.2s-1.6.7-1.4,1.8Z" style="fill:#fff"/></g><path d="M322.4,459.7c0,.2.9.3,1.8.9s1.3,1.3,1.5,1.2a2.2,2.2,0,0,0-1.2-1.8A2.4,2.4,0,0,0,322.4,459.7Z" style="fill:#263238"/><path d="M318.6,461.3c0,.2.8.5,1.4,1.2s.7,1.6.9,1.6.3-1-.5-2A1.9,1.9,0,0,0,318.6,461.3Z" style="fill:#263238"/><path d="M316.5,465.9c.2,0,.4-.9-.1-1.9s-1.2-1.3-1.3-1.2.4.7.8,1.5S316.3,465.8,316.5,465.9Z" style="fill:#263238"/><path d="M321,456.4c.1.2.9-.1,1.9,0s1.7.4,1.8.2-.6-.8-1.8-.8S320.9,456.3,321,456.4Z" style="fill:#263238"/><path d="M320.6,454.3h1.8l1.9-.6,1-.6.6-.4a.8.8,0,0,0,.1-.9.9.9,0,0,0-.8-.4h-.7l-1.1.4-1.7,1.1c-.8.8-1.1,1.5-1,1.5s.5-.5,1.3-1.1a4.2,4.2,0,0,1,1.6-.9l1.1-.4c.3-.1.7-.1.8.1v.2l-.4.3-.9.6-1.8.6A9.5,9.5,0,0,0,320.6,454.3Z" style="fill:#263238"/><path d="M320.7,454.3a3.4,3.4,0,0,0,.4-1.8,5,5,0,0,0-.2-2,4.7,4.7,0,0,0-.5-1c-.2-.4-.4-.9-1.1-1a1,1,0,0,0-.8.5,6.4,6.4,0,0,1-.2.7v1.2a6.8,6.8,0,0,0,.8,1.9,3.1,3.1,0,0,0,1.5,1.1,8.8,8.8,0,0,1-1.1-1.4,3.8,3.8,0,0,1-.6-1.6v-1.1c.1-.4.2-.7.4-.6a.9.9,0,0,1,.6.5,6.9,6.9,0,0,1,.4,1,4.5,4.5,0,0,1,.4,1.8C320.8,453.6,320.6,454.2,320.7,454.3Z" style="fill:#263238"/><path d="M339.9,308.3c-1,.5-38,52.3-48.7,66.6a11,11,0,0,0-2.1,9.1c4.8,18.4,24.2,74.9,24.2,74.9l26-5.3L323,386l40.3-43.3-4.6-34.4Z" style="fill:#263238"/><path d="M322.6,387a14.6,14.6,0,0,1-3.4-1.6,12.1,12.1,0,0,1-3.1-2.1,14.6,14.6,0,0,1,3.4,1.6A16.1,16.1,0,0,1,322.6,387Z" style="fill:#455a64"/><path d="M232.7,187.7l3.1,1.5a9.3,9.3,0,0,1,3.9,3.7l2.5,4.2,5.4,4.1-7.3,10-2-1.6s-7.3-.4-10-1.7-5.3-3.5-5-4.4l.5-1.3a4.2,4.2,0,0,1-.7-3.2s-1.7-2-1.4-3.3a3.3,3.3,0,0,1,2.6-2.5s-.9-2.3,0-3.5a4.1,4.1,0,0,1,2.4-1.5l6.8,2.9Z" style="fill:#c78976"/><path d="M417.8,446.3l11.9,14.2s-10.6,16.9-8.6,19.8l28.5-22.1-17.6-23Z" style="fill:#455a64"/><g style="opacity:0.6000000000000001"><path d="M437.5,452.5a1.5,1.5,0,0,1,1.9.7,1.5,1.5,0,0,1-.7,1.8,1.7,1.7,0,0,1-2-.7,1.6,1.6,0,0,1,1-1.9" style="fill:#fff"/></g><g style="opacity:0.6000000000000001"><path d="M449.6,458.2l-1.9-2.2-26.6,22s-.8,1.5,0,2.3Z" style="fill:#fff"/></g><path d="M429.1,460.8a17.9,17.9,0,0,1,1.9-.5c1-.1,1.8.2,1.9.1s-.7-.8-2-.7S429,460.6,429.1,460.8Z" style="fill:#263238"/><path d="M427.1,464.3c0,.2.8-.1,1.7.2s1.6.7,1.7.6-.4-1-1.5-1.2S427,464.2,427.1,464.3Z" style="fill:#263238"/><path d="M428.1,469.2c.2-.1-.2-.9-1.1-1.4s-1.9-.3-1.8-.1.7.2,1.5.6S428,469.3,428.1,469.2Z" style="fill:#263238"/><path d="M426.7,457.2c.2.1.7-.6,1.5-1.2s1.6-.7,1.6-.9-1-.2-1.9.4S426.6,457.1,426.7,457.2Z" style="fill:#263238"/><g style="opacity:0.30000000000000004"><polygon points="423.2 453.2 425.3 455.7 439.2 444.8 437.4 442.4 423.2 453.2"/></g><path d="M424.4,454.3a6.1,6.1,0,0,0,1.4-1.1,7.1,7.1,0,0,0,1.1-1.7,3.1,3.1,0,0,0,.5-1,1.4,1.4,0,0,0,.2-.7.9.9,0,0,0-.5-.8,1,1,0,0,0-.9.2,1,1,0,0,0-.4.5,3.6,3.6,0,0,0-.7,1,7.6,7.6,0,0,0-.6,1.8,3.9,3.9,0,0,0,0,1.8,13.7,13.7,0,0,0,.4-1.7,7.7,7.7,0,0,1,.7-1.7l.6-.9c.3-.3.5-.5.7-.4s.1,0,.1.2a4.3,4.3,0,0,0-.1.5c-.2.3-.3.7-.5,1a11.4,11.4,0,0,1-.9,1.6C424.8,453.7,424.3,454.2,424.4,454.3Z" style="fill:#263238"/><path d="M424.7,454.3c.1,0,0-.7-.7-1.6a4.7,4.7,0,0,0-1.4-1.4,2.1,2.1,0,0,0-1-.6,1.6,1.6,0,0,0-1.5-.1,1.2,1.2,0,0,0-.3.9,1.6,1.6,0,0,0,.3.6,8.6,8.6,0,0,0,.7,1,4.1,4.1,0,0,0,1.8,1,2.9,2.9,0,0,0,1.8,0,12.9,12.9,0,0,1-1.7-.4,4.4,4.4,0,0,1-1.5-1l-.6-.8c-.2-.4-.2-.7-.1-.8s.6,0,.9.1l.9.5a8.7,8.7,0,0,1,1.4,1.2C424.4,453.7,424.6,454.4,424.7,454.3Z" style="fill:#263238"/><path d="M392.2,307.1c.5,1.6,7.1,81.5,7.1,81.5l44.6,59.1L425,460.9l-50.4-51.8a17.7,17.7,0,0,1-4.8-8.9l-18.6-88.5Z" style="fill:#263238"/><polygon points="286.8 223.4 326 224.2 328.7 224.7 317.8 248.7 277.8 242.9 238.4 213.8 248.9 199.1 286.8 223.4" style="fill:#647dee"/><path d="M349.5,222.4l15,3.9a12.4,12.4,0,0,1,8.3,7.8l4.2,15.3,8.9,34.1,8.6,30.9c-15.4,7-27.6,16.6-46.9,17.2a19.4,19.4,0,0,1-7.9-1.4l-12.6-5.4,4.1-19.4-15.1-57.7,11.5-22.8,4-.6Z" style="fill:#647dee"/><path d="M293.1,203.6a2.5,2.5,0,0,1,.3-1.7,6.9,6.9,0,0,1,3.3-2.3,16.2,16.2,0,0,0-.3-5.4,3.1,3.1,0,0,1-1.9.1h-.4c-1.4-.1-2.2-1.9-1.9-3.3a8.7,8.7,0,0,1,2.5-3.5c-.9.5-1.4,1.4-2.2,2s-2.1.8-2.6-.1a2.9,2.9,0,0,1-.2-.9,10.9,10.9,0,0,0-.1-1.8,2.1,2.1,0,0,1,.3-1.4c.2-.3.6-.4.9-.6s.9-2.2,1.8-2.8a5.4,5.4,0,0,1,2.5-.6c.8-.1,1.8-.6,1.7-1.5a7.3,7.3,0,0,1-3.5-1.2,2.8,2.8,0,0,1-.9-3.3,3.7,3.7,0,0,1,2.4-1.5c1-.3,2.3-.6,3,.3a2.7,2.7,0,0,1,4,.8l2.5-1.3c-1-.5-2.2-.6-3.2-1.2s-1.4-2.2-.5-2.8.8-.3,1.1-.6.4-.5.7-.6h.6l6.9,1.4c-1-.9-1.9-1.9-2.8-2.8s-1.8-2.2-1.1-3.3,2.3-.6,3,.5a1.9,1.9,0,0,1,2.8.8,2,2,0,0,1,2.3-.3,2.2,2.2,0,0,1,.9,2.2,5.7,5.7,0,0,1,2.9-.2,1.7,1.7,0,0,1,2.1-2.1,2.5,2.5,0,0,1-.2-1.7,1,1,0,0,1,1.4-.7,1.9,1.9,0,0,1,.1-2.3,2.1,2.1,0,0,1,2.1-.7,5.8,5.8,0,0,0,.5-1.4,2.6,2.6,0,0,1,2.8.3,1.6,1.6,0,0,1-.4,2.5c.7-.3.9.8.7,1.5s-.5,1.8-.7,2.8a2.1,2.1,0,0,1,2.4-1.2,1.8,1.8,0,0,1,2.3-.9,1.4,1.4,0,0,1,2.5-.5c0-.5.5-.7,1-.8a3,3,0,0,1,2.1-.1c.6.3,1,1.2.4,1.7a1.1,1.1,0,0,1,1.7.4,2.8,2.8,0,0,1-.3,2,6.4,6.4,0,0,0-.8,1.9,3.2,3.2,0,0,1,1.7-1.1,7.6,7.6,0,0,1,3.6-.6c0-.6.6-.8,1.2-.9a7.5,7.5,0,0,1,4.7.6c.8.3,1.5.9,1.4,1.7a1.3,1.3,0,0,1-.5.9l-2.7,3.6a10.2,10.2,0,0,1,6.2,1.5c.8.2,1.8-.1,2.6.1s1.3,1.7.5,2a1.7,1.7,0,0,1,1.1,1.5,3.2,3.2,0,0,1-.3.9l-.3.5a2.2,2.2,0,0,1-.7.9,1.9,1.9,0,0,1-1.3,1.3,9.5,9.5,0,0,1,2.4,1.4,3.2,3.2,0,0,1,1.3,3.2v.2a1.3,1.3,0,0,1-.3,1.2,2.6,2.6,0,0,1,.5.9,3.4,3.4,0,0,1,3.2,1.9,3.7,3.7,0,0,1-.1,3.8c-.6.9-2.2,1.4-2.6.4a3.3,3.3,0,0,1-1.5,2.3,2.8,2.8,0,0,1,0,4.1c1.9.6,2.5,3.6.9,4.8a2.2,2.2,0,0,1-.3,3.2,2.3,2.3,0,0,1-3.2-.2,4.4,4.4,0,0,1-.8,2.5,1.6,1.6,0,0,1-2.4.3,3.2,3.2,0,0,1-3.7,3.1,2,2,0,0,1-1,2.5,2.1,2.1,0,0,1-2.7-.8l-4.8,1.9a20.7,20.7,0,0,1-3.3,1,10.8,10.8,0,0,1-4.4-.3,3.2,3.2,0,0,0-1.4-.3,3.9,3.9,0,0,0-1.4.8,8.2,8.2,0,0,1-8.1,1.1l-1.3-.4a4.2,4.2,0,0,0-1.5.4,16.1,16.1,0,0,1-3.8.8,3.7,3.7,0,0,1-3.1-.6c-.8-.8-.8-2.4.2-2.8a2.4,2.4,0,0,0-1.2-1.6,1.4,1.4,0,0,0-1.8.6c-.3.7.3,1.6,1,1.4s-2.9.8-3.5-.5a2.9,2.9,0,0,1,1.7-3.5,8.1,8.1,0,0,1-1.2-2.9,2.4,2.4,0,0,1-2.8,1.5,3.7,3.7,0,0,1-1.8,2.6,2.2,2.2,0,0,1-2.9-.4,1.6,1.6,0,0,1,.7-2.6,2.1,2.1,0,0,1,.6-3.5,3.4,3.4,0,0,1,.6-3.9,1.6,1.6,0,0,1-2.5,0c-.3,1.3-1.9,1.6-3.1,1.4S293.3,204.9,293.1,203.6Z" style="fill:#263238"/><path d="M293.1,203.6a1,1,0,0,0,.1.4,1.8,1.8,0,0,0,.8,1,4.1,4.1,0,0,0,2.1.5l1.3-.3a1.8,1.8,0,0,0,1-1.1h-.1a1.8,1.8,0,0,0,2.7,0h-.1a3.4,3.4,0,0,0-.7,4v-.2a2,2,0,0,0-1.3,1.6,1.9,1.9,0,0,0,.6,2h.1a1.6,1.6,0,0,0-1.2,1.8,1.8,1.8,0,0,0,1.6,1.7,2.7,2.7,0,0,0,2.4-.7,4.1,4.1,0,0,0,1.3-2.3h-.1a2.5,2.5,0,0,0,2.9-1.6h-.2a6,6,0,0,0,1.2,3v-.2a2.9,2.9,0,0,0-1.6,1.3,3.2,3.2,0,0,0-.3,2.2,2.4,2.4,0,0,0,1.7,1.4,2,2,0,0,0,2.1-.7l.2-.3h-.3a.8.8,0,0,1-.9-.7c-.2-.5.2-.9.6-1.1a1.7,1.7,0,0,1,1.4.3,2.2,2.2,0,0,1,.8,1.3v-.2a1.3,1.3,0,0,0-.8.8,1.4,1.4,0,0,0-.1,1.1,2.4,2.4,0,0,0,.6,1.1l.9.5a4.5,4.5,0,0,0,2.3.2l2.2-.3c1.5-.3,2.8-1.5,4.2-.5a8.4,8.4,0,0,0,4.7.5,9,9,0,0,0,2.3-.8,10.7,10.7,0,0,0,2.1-1.3,1.9,1.9,0,0,1,1-.3l1.2.3a7.3,7.3,0,0,0,2.5.4,12.6,12.6,0,0,0,5-1.2l4.9-1.8h-.2a2.3,2.3,0,0,0,2.8,1,2.3,2.3,0,0,0,1.1-2.9l-.2.2a3.2,3.2,0,0,0,4-3.2l-.4.2a1.8,1.8,0,0,0,1.4.4,1.7,1.7,0,0,0,1.3-.7,4.4,4.4,0,0,0,.9-2.7h-.3a2.6,2.6,0,0,0,3.4.3,2.6,2.6,0,0,0,.4-3.5v.3a3.1,3.1,0,0,0-.9-5.2v.3a3,3,0,0,0-.1-4.4v.3a3,3,0,0,0,1.6-2.4h-.4a1,1,0,0,0,.6.5.9.9,0,0,0,.7.1,2,2,0,0,0,1.3-.6,3.8,3.8,0,0,0,1-2.7,4,4,0,0,0-1.2-2.7,4.4,4.4,0,0,0-2.7-1.1l.2.2a2.6,2.6,0,0,0-.5-.9v.3a1.7,1.7,0,0,0,.3-1.4h0a3.2,3.2,0,0,0-.8-3.2,7.7,7.7,0,0,0-2.9-1.9v.5a2.3,2.3,0,0,0,1.4-1.5h-.1a3.1,3.1,0,0,0,1.1-1.6h-.1a1.5,1.5,0,0,0,.3-1.6,1.7,1.7,0,0,0-1.2-1.1v.4a1,1,0,0,0,.5-.6.8.8,0,0,0-.1-.7,1.4,1.4,0,0,0-1-1.1,11.5,11.5,0,0,0-2.6-.1h.1a10.4,10.4,0,0,0-6.3-1.5l.2.3,1.2-1.6,1-1.2.9-1.3a1.4,1.4,0,0,0,.1-.9,2,2,0,0,0-.4-.8,3.9,3.9,0,0,0-1.4-.8,8.1,8.1,0,0,0-3.1-.6H344a1.1,1.1,0,0,0-.8.3.8.8,0,0,0-.5.8l.2-.3a7,7,0,0,0-2.9.4l-1.4.5a2.8,2.8,0,0,0-1.2,1h.4c.1-.9.9-1.7,1.2-2.8a1.9,1.9,0,0,0-.4-1.6c-.3-.2-.5-.4-.8-.4a1.2,1.2,0,0,0-.9.3l.3.4a1.4,1.4,0,0,0,.3-.9,1.1,1.1,0,0,0-.3-.7,1,1,0,0,0-.6-.5l-.8-.2a5.8,5.8,0,0,0-1.4.3,1.1,1.1,0,0,0-.7.3.9.9,0,0,0-.5.7h.5a1.6,1.6,0,0,0-1.7-.6,1.5,1.5,0,0,0-1.2,1.2l.3-.2a1.9,1.9,0,0,0-2.6,1h.3a2.4,2.4,0,0,0-2.7,1.3h.4l.6-2.4a2.5,2.5,0,0,0,.2-1.3c-.1-.2-.1-.4-.3-.6l-.3-.3h-.5l.2.4a1.7,1.7,0,0,0,1-1.3,1.9,1.9,0,0,0-.6-1.6,2.9,2.9,0,0,0-3-.3h-.1a8.8,8.8,0,0,1-.5,1.5l.3-.2a2.2,2.2,0,0,0-2.4.8,2.1,2.1,0,0,0-.1,2.5l.3-.3a1.1,1.1,0,0,0-1.1.1,1,1,0,0,0-.6.8,2.8,2.8,0,0,0,.2,1.8l.3-.3a1.9,1.9,0,0,0-2.4,2.4l.2-.3a6.1,6.1,0,0,0-3,.2l.3.3a2.4,2.4,0,0,0-1-2.5,2.5,2.5,0,0,0-2.6.3h.4a2.2,2.2,0,0,0-3.2-.9h.3a2.3,2.3,0,0,0-1.2-1,1.7,1.7,0,0,0-2.4,1.3,2.5,2.5,0,0,0,.5,1.5,12.4,12.4,0,0,0,1.8,2.1l1.9,2,.2-.3-4.2-.9-2.1-.5c-.4,0-.7-.2-1.1-.1l-.6.3-.3.4-.8.4a1.1,1.1,0,0,0-.8.8,2.6,2.6,0,0,0,.5,2.1,5,5,0,0,0,1.9,1,9.5,9.5,0,0,1,1.8.6v-.3l-2.5,1.2h.2a3,3,0,0,0-4.2-.9h.2a2.1,2.1,0,0,0-1.8-.7l-1.7.5a4.8,4.8,0,0,0-1.6.8,2.1,2.1,0,0,0-.8,1.6,3,3,0,0,0,1.7,2.8,9.4,9.4,0,0,0,3.1,1v-.2a1.2,1.2,0,0,1-.7,1,1.9,1.9,0,0,1-1.2.4l-1.4.2a1.9,1.9,0,0,0-1.2.7c-.6.8-.7,1.7-1.3,2.3l-1,.7a1.4,1.4,0,0,0-.4,1.2c0,.9.1,1.7.1,2.5a1.8,1.8,0,0,0,.5,1.1,1.7,1.7,0,0,0,1.2.2,2.1,2.1,0,0,0,1.1-.4l.8-.7a7,7,0,0,1,1.6-1.4h-.1a10.2,10.2,0,0,0-1.8,1.8,6,6,0,0,0-.9,2.2,2.9,2.9,0,0,0,.7,2,1.8,1.8,0,0,0,1.8.8h-.1a2.6,2.6,0,0,0,2-.2h-.1a18.2,18.2,0,0,1,.4,5.4h0a9.9,9.9,0,0,0-2.3,1.3,2.7,2.7,0,0,0-1.1,1.4,2.6,2.6,0,0,0-.2,1.1v.3a1.9,1.9,0,0,1,.2-1.4,6,6,0,0,1,1.1-1.4l2.4-1.2h0a15.3,15.3,0,0,0-.4-5.4h-.1a3.2,3.2,0,0,1-1.8.2h-.1a1.6,1.6,0,0,1-1.6-.8,3.1,3.1,0,0,1-.6-1.9,4.8,4.8,0,0,1,.9-2.1l1.7-1.8.5-.4-.6.2a5.4,5.4,0,0,0-1.6,1.4l-.8.7-1,.4a1.6,1.6,0,0,1-1-.2,1.2,1.2,0,0,1-.4-1c-.1-.7-.1-1.5-.2-2.4a1.2,1.2,0,0,1,.4-1c.2-.3.7-.4,1-.7s.8-1.6,1.3-2.3,1.5-.7,2.4-.8a3.3,3.3,0,0,0,1.4-.4,1.7,1.7,0,0,0,.8-1.3h-.1a9.5,9.5,0,0,1-3-.9,3,3,0,0,1-1.6-2.6,2.1,2.1,0,0,1,.7-1.4,6.9,6.9,0,0,1,1.5-.7,4.7,4.7,0,0,1,1.7-.4,1.3,1.3,0,0,1,1.4.5h.3a2.6,2.6,0,0,1,3.7.8h.3l2.5-1.2.3-.2h-.3l-1.9-.7a3.5,3.5,0,0,1-1.7-.9,2.1,2.1,0,0,1-.5-1.7,1.2,1.2,0,0,1,.6-.6,2.4,2.4,0,0,0,1-.5c.3-.3.4-.6.6-.6l1,.2,2.1.4,4.2.9.7.2-.5-.5-1.9-1.9a18.1,18.1,0,0,1-1.8-2.1,2.8,2.8,0,0,1-.4-1.2,1.3,1.3,0,0,1,.6-1,1.8,1.8,0,0,1,2.3.8v.2l.2-.2a1.8,1.8,0,0,1,2.5.7v.3l.2-.2a1.8,1.8,0,0,1,2.1-.2,1.9,1.9,0,0,1,.8,2v.3h.3a5.4,5.4,0,0,1,2.8-.2h.4v-.4a1.5,1.5,0,0,1,1.8-1.8l.5.2-.2-.4a3.1,3.1,0,0,1-.2-1.6c.1-.5.7-.9,1.1-.6l.8.5-.6-.8a2,2,0,0,1,.1-2.1,2.1,2.1,0,0,1,2-.6h.2v-.2c.1-.5.3-.9.4-1.4H324a2.4,2.4,0,0,1,2.6.2c.6.6.5,1.9-.3,2.1v.5h.3l.2.5a4.3,4.3,0,0,1-.2,1.1l-.6,2.4.4.2a2,2,0,0,1,2.2-1.1h.2v-.2a1.5,1.5,0,0,1,2-.8l.3.2v-.4c.1-.8,1.7-1.2,2.1-.4l.5,1v-1.1c0-.3.4-.5.8-.6l1.3-.2a1.2,1.2,0,0,1,1.1.4c.2.3.3.8,0,1l.3.3c.2-.3.8-.2,1.1.1a1.3,1.3,0,0,1,.2,1.2c-.1.9-.9,1.7-1.1,2.9v1l.5-.9c.4-.7,1.5-.9,2.3-1.3a6.7,6.7,0,0,1,2.8-.3h.2v-.2c0-.4.5-.6.9-.7h1.5a7.2,7.2,0,0,1,2.9.6,3.5,3.5,0,0,1,1.2.7,1,1,0,0,1,.3,1.2,9.4,9.4,0,0,1-.9,1.2l-.9,1.2-1.2,1.6-.3.4h.5a11.2,11.2,0,0,1,6,1.5h0a22.4,22.4,0,0,1,2.6,0,1.4,1.4,0,0,1,.7.8c.1.3.1.7-.2.8l-.7.2.7.2a1.4,1.4,0,0,1,.9.9,1.4,1.4,0,0,1-.2,1.1h-.1a2,2,0,0,1-.8,1.3h-.1a1.8,1.8,0,0,1-1.2,1.2l-.6.2.6.3a5.1,5.1,0,0,1,2.8,1.7,2.7,2.7,0,0,1,.7,2.7h0a2,2,0,0,1-.3,1.1v.2h.2a.9.9,0,0,1,.3.7v.2h.2a3.1,3.1,0,0,1,2.4,1,3.4,3.4,0,0,1,1.1,2.3,3.4,3.4,0,0,1-.9,2.4l-1,.5c-.4,0-.8-.1-.9-.4l-.4-.8v.9a2.9,2.9,0,0,1-1.4,2.1h-.3l.3.2a2.7,2.7,0,0,1,0,3.8l-.3.2.4.2c.9.2,1.4,1.2,1.6,2.1a3,3,0,0,1-.8,2.4h-.2v.2a2,2,0,0,1-.3,2.9,2,2,0,0,1-2.8-.3l-.3-.4v.5a4.5,4.5,0,0,1-.8,2.6,1.4,1.4,0,0,1-2,.2l-.4-.5v.6a2.8,2.8,0,0,1-1.1,2.3,3,3,0,0,1-2.4.6h-.4l.2.3a2,2,0,0,1-1,2.4,1.8,1.8,0,0,1-2.3-.8h-.2l-4.9,1.9a14,14,0,0,1-4.9,1.1,9.9,9.9,0,0,1-2.4-.3l-1.2-.4a1.8,1.8,0,0,0-1.3.4,11.3,11.3,0,0,1-2,1.3,6.3,6.3,0,0,1-2.2.7,8,8,0,0,1-4.6-.5,3.5,3.5,0,0,0-1.1-.3,2.5,2.5,0,0,0-1.2.1,8.6,8.6,0,0,1-2.1.7l-2.2.4a5,5,0,0,1-2.1-.2,2.1,2.1,0,0,1-1.3-1.3,1.4,1.4,0,0,1,.7-1.6h.1a2.9,2.9,0,0,0-.9-1.5,2,2,0,0,0-1.7-.3,1.2,1.2,0,0,0-.8,1.4,1.1,1.1,0,0,0,1.2,1v-.3a1.6,1.6,0,0,1-1.8.6,1.9,1.9,0,0,1-1.5-1.2,2.8,2.8,0,0,1,1.7-3.2h.1v-.2a8.5,8.5,0,0,1-1.2-2.8v-.1a2.1,2.1,0,0,1-2.7,1.4h-.1a4.6,4.6,0,0,1-1.2,2.3,2.6,2.6,0,0,1-2.2.6,1.7,1.7,0,0,1-1.5-1.5c0-.7.4-1.5,1-1.6h.1a1.9,1.9,0,0,1,.6-3.3h0a3.1,3.1,0,0,1,.6-3.8h-.1a1.7,1.7,0,0,1-2.5,0h-.1a1.5,1.5,0,0,1-.9,1.1l-1.3.3a5.6,5.6,0,0,1-2.1-.4,2.4,2.4,0,0,1-.8-1A1,1,0,0,1,293.1,203.6Z" style="fill:#455a64"/><path d="M349.8,223.4l-11.9-34.3c-2.8-9.4-10.6-15.5-19.9-12.4l-.8.3A17.4,17.4,0,0,0,307,198.4c2.5,8,5.3,17,7.1,21.1,3.6,8.7,12.8,6.6,12.8,6.6l1.6,4.6h0s1.5,8.7,8.3,6.6S349.8,223.4,349.8,223.4Z" style="fill:#c78976"/><path d="M326.8,226.1a22.4,22.4,0,0,0,10-7.9s0,7.7-9,10.4Z" style="fill:#8b5d54"/><path d="M311.8,204.4a1.3,1.3,0,0,0,1.7.8,1.3,1.3,0,1,0-.9-2.4A1.2,1.2,0,0,0,311.8,204.4Z" style="fill:#263238"/><path d="M310.2,201.2c.3.1.9-.9,2.3-1.5s2.5-.2,2.6-.4-.2-.4-.8-.5a3.5,3.5,0,0,0-2.2.2,3.5,3.5,0,0,0-1.7,1.4C310.2,200.9,310.1,201.2,310.2,201.2Z" style="fill:#263238"/><path d="M324.2,200.4a1.4,1.4,0,0,0,1.7.8,1.4,1.4,0,0,0,.9-1.7,1.3,1.3,0,0,0-1.7-.7A1.3,1.3,0,0,0,324.2,200.4Z" style="fill:#263238"/><path d="M323.5,196.6c.3.1.9-1,2.3-1.5s2.6-.3,2.6-.5-.2-.4-.7-.5a4.8,4.8,0,0,0-2.3.2,2.8,2.8,0,0,0-1.6,1.4Q323.4,196.5,323.5,196.6Z" style="fill:#263238"/><path d="M322.9,208.7l-2.4.5c-.3.1-.7.2-.8,0s-.2-.7-.2-1.1v-3c-.1-4.3-.3-7.7-.5-7.7s-.2,3.4-.2,7.7c.1,1,.1,2,.1,3a1.9,1.9,0,0,0,.4,1.4,1.1,1.1,0,0,0,.7.3l.7-.2A7.3,7.3,0,0,0,322.9,208.7Z" style="fill:#263238"/><path d="M321.4,192.2c.3.3,1.6-.4,3.2-.9s3.1-.5,3.2-.9-.3-.4-1-.6a7.9,7.9,0,0,0-2.6.1,4.6,4.6,0,0,0-2.2,1.3C321.5,191.6,321.3,192,321.4,192.2Z" style="fill:#263238"/><path d="M309,196.5c.3.2,1.1-.4,2.3-.8s2.1-.6,2.2-1-.2-.5-.8-.6a3.7,3.7,0,0,0-2,.2,3.1,3.1,0,0,0-1.6,1.3C308.8,196.1,308.8,196.4,309,196.5Z" style="fill:#263238"/><path d="M322.9,212.7a6.8,6.8,0,0,0,1.2,1.2,2.5,2.5,0,0,0,1.7.4A2.2,2.2,0,0,0,327,213a3.6,3.6,0,0,0-.2-1.8c-.2-.6-.6-1.1-1.2-1l-.6.4-2.3,2" style="fill:#8b5d54"/><path d="M324.7,214.6a3,3,0,0,0,1.4-.7,2,2,0,0,0,.8-1.3,2.7,2.7,0,0,0-.5-1.9l-.4-.3h-.2l-.4.3-.4.3-1.4,1.2-1.3.9c-.1,0,.3-.5,1.1-1.2l1.3-1.2.3-.4.5-.3.4-.2.4.2.5.4a3.1,3.1,0,0,1,.6,2.2,2.4,2.4,0,0,1-1,1.6,2.8,2.8,0,0,1-1.2.5Z" style="fill:#263238"/><path d="M301.9,192a7,7,0,0,1-.3-1.4,3.8,3.8,0,0,1,.5-2.1c1-2.3,2.2-4.6,4-6s2.6-1.2,3.7-2a11.6,11.6,0,0,0,2-1.8,21.2,21.2,0,0,1,9.7-4.3,17.4,17.4,0,0,1,6-.4,22.4,22.4,0,0,1,6.5,2.5,31.9,31.9,0,0,1,8.6,6.6,14.9,14.9,0,0,1,3.9,7.7c.4,3-.6,6.1-2.8,7.4l-1.2-.8-1.9-1.1c.4.5.2.6-.2,1.1a1.3,1.3,0,0,1-1.8,0c-.3.7-1.4.4-1.5-.4s-1.4,0-1.4-.8-1.2-.4-1.8-1l-.9-.9a7,7,0,0,1-2.1-3.4c-1.1-.7-1.7-2.1-2.3-3.4s-.7-1.5-1-2.3l-.6-.5a1.4,1.4,0,0,1-.6,1.6,3.3,3.3,0,0,1-1.5.4h-1.5l-.9.6a4.2,4.2,0,0,1,.5,2.5,3,3,0,0,1-.5,1.6c-.4.3-1.2.1-1.2-.5a.8.8,0,0,1-1.2.2,2.2,2.2,0,0,1-.8-1.5,6.5,6.5,0,0,1,.1-3.9l-1.9,3.2a.8.8,0,0,1-.5.5.7.7,0,0,1-.5,1c-.4.1-.8-.2-1.1-.4s-1.8-1.4-1.5-2.3-.6-.4-.5-.7-1.5,2-2.2,3.1.7.1.7.5a1.8,1.8,0,0,1-.4,1,2.2,2.2,0,0,1,.8,1.3c.4-.6,1.4,0,1.5.8a2,2,0,0,1-1.2,1.7,1.3,1.3,0,0,1-1.6-.5c-.6.3-1.4-.4-1.4-1.2s-1-.2-1.3-.9a12,12,0,0,1-.5-3.3h-.3c-.1,1.4-.3,2.8-.4,4.2a10.9,10.9,0,0,0,.1,3.6c.1.5.3,1.2-.1,1.3s-.3,0-.4,0a6,6,0,0,1-3.5-2.3,5,5,0,0,1-.8-1.2A19.2,19.2,0,0,1,301.9,192Z" style="fill:#263238"/><path d="M313.9,186c0-.1-.4-.2-.6-.7a1,1,0,0,1,1-1.4h.2v-.2a1.1,1.1,0,0,1-.1-1.3,1.1,1.1,0,0,1,1.4-.4v-.2a.1.1,0,0,0-.1-.1.6.6,0,0,1,0-.6c0-.2.2-.3.3-.4h1.2a.8.8,0,0,0,.5-.5l.3-.4.9-.4a2,2,0,0,1,1.3-.1l.5.2c.1,0-.1-.2-.4-.3a2.5,2.5,0,0,0-1.5,0,2,2,0,0,0-.9.5l-.4.4-.4.4h-.5l-.7.2-.5.5a.8.8,0,0,0,.1.8l.2.2v-.2a1.4,1.4,0,0,0-1.7.4,1.5,1.5,0,0,0,.1,1.6v-.2a1.4,1.4,0,0,0-1.2.8.9.9,0,0,0,.1,1,1.1,1.1,0,0,0,.4.5Z" style="fill:#455a64"/><path d="M308.1,189.4c.1-.1-.3-.1-.6-.6a1.5,1.5,0,0,1-.3-1,1.4,1.4,0,0,1,.8-.9h0a1.7,1.7,0,0,1-.8-1.3,1.1,1.1,0,0,1,.3-.7,1.2,1.2,0,0,1,.8-.1l.9.6-.7-.8a1,1,0,0,1-.4-1,1.1,1.1,0,0,1,.6-1,1.5,1.5,0,0,1,.9-.2h.3l-.2-.3a.9.9,0,0,1,.4-1.2,2.2,2.2,0,0,1,1.4,0h.3l-.2-.2a1.2,1.2,0,0,1,.1-1,1.3,1.3,0,0,1,.7-.6,3.7,3.7,0,0,1,1.6-.4,3.5,3.5,0,0,1,1.5.1l-.4-.2H314a4.1,4.1,0,0,0-1.7.4,2.7,2.7,0,0,0-.8.7,1.3,1.3,0,0,0-.1,1.2l.2-.2a2.2,2.2,0,0,0-1.6.1,1.2,1.2,0,0,0-.6.6,1.2,1.2,0,0,0,.1,1V182a1.7,1.7,0,0,0-1,.1,1.5,1.5,0,0,0-.3,2.5v-.2a.8.8,0,0,0-1,.2.8.8,0,0,0-.4.9,1.6,1.6,0,0,0,.9,1.3h0a1.3,1.3,0,0,0-.8,1.1,1.3,1.3,0,0,0,.3,1.1c.1.2.4.3.5.4Z" style="fill:#455a64"/><path d="M295.1,194.4a.8.8,0,0,1,.1-.8,1.3,1.3,0,0,1,.7-.5h1.4a1.1,1.1,0,0,1,.6-1.3,2.7,2.7,0,0,1,1.8-.2h.9l-.8-.3c-.5-.1-.6-.8-.3-1.3a2.2,2.2,0,0,1,1.4-.8h.6l-.5-.2c-.6-.1-.7-1.1-.3-1.5a1.6,1.6,0,0,1,1.6-.3l.7.3-.5-.5a2.2,2.2,0,0,1-.7-2.2,2.8,2.8,0,0,1,1.2-1.4,2,2,0,0,1,1.3-.1h0a2,2,0,0,0-1.3.1,2.6,2.6,0,0,0-1.4,1.5,2.6,2.6,0,0,0,.7,2.4v-.2a1.7,1.7,0,0,0-1.9.3,1.4,1.4,0,0,0-.3,1.1,1.1,1.1,0,0,0,.7.9v-.3h-.1a2,2,0,0,0-1.6.9,1.5,1.5,0,0,0-.2.9,1.6,1.6,0,0,0,.6.8v-.3a4,4,0,0,0-1.9.3,1.4,1.4,0,0,0-.7,1.6v-.2h-1.3c-.4.2-.7.4-.8.7a1.5,1.5,0,0,0-.1.6A.3.3,0,0,0,295.1,194.4Z" style="fill:#455a64"/><path d="M298.4,179.6h.4l1-.3a3.2,3.2,0,0,1,1.4-.2,1.2,1.2,0,0,1,.7.5.8.8,0,0,1-.1.8h.2a1.5,1.5,0,0,1,.6-1l1.1-.8a1.3,1.3,0,0,1,1.2-.2,1.1,1.1,0,0,1,.8.8v.3l.2-.3a2.7,2.7,0,0,1,1.5-1.1,2.4,2.4,0,0,1,1.4-.2c.8,0,1.3.4,1.3.3l-.3-.2-1-.3a4.4,4.4,0,0,0-1.5.2,3.1,3.1,0,0,0-1.6,1.2h.2c0-.5-.5-.8-.9-1a2.6,2.6,0,0,0-1.5.2l-1.1.9-.4.5a1.9,1.9,0,0,0-.2.7v.2h.2a.9.9,0,0,0,.1-1.1,1.6,1.6,0,0,0-.8-.6,2.6,2.6,0,0,0-1.6.3l-.9.3Z" style="fill:#455a64"/><path d="M309.4,171.2c0,.1.3-.1.7-.1l.7.2a1.4,1.4,0,0,1,.7.8h.2c.2-.2.7-.1,1,.3a2.5,2.5,0,0,1,.5,1.3v.5l.2-.4h.1a.9.9,0,0,1,.7-.6.9.9,0,0,1,.9.1,2,2,0,0,1,1,1.3,4.7,4.7,0,0,1,0,1.2c0,.3-.1.4,0,.4v-.4a4.1,4.1,0,0,0,.1-1.2,2.2,2.2,0,0,0-1-1.5,1.4,1.4,0,0,0-2.1.6h.2a2.1,2.1,0,0,0-.5-1.5,1.1,1.1,0,0,0-1.4-.3h.2a1.5,1.5,0,0,0-.8-.8,1.3,1.3,0,0,0-.8-.2h-.7Z" style="fill:#455a64"/><path d="M322.6,175.6h.3a2.8,2.8,0,0,0,.6-.8,2,2,0,0,0,.2-1.4.8.8,0,0,1,0-.7,2.9,2.9,0,0,0,.4-.8,1.3,1.3,0,0,0-.8-1.6v.2a3.8,3.8,0,0,0,.6-1.8,1.2,1.2,0,0,0,0-.7,4.2,4.2,0,0,1-.1.7,6.8,6.8,0,0,1-.7,1.7h0a1.2,1.2,0,0,1,.7,1.3,3.5,3.5,0,0,1-.5.8,1.1,1.1,0,0,0,.1.8,1.8,1.8,0,0,1-.2,1.3A2.7,2.7,0,0,1,322.6,175.6Z" style="fill:#455a64"/><path d="M326.4,176.9h.3l.5-.2a4.1,4.1,0,0,0,1.6-1.6h-.2a2.5,2.5,0,0,0,1.7.4l.9-.4a1.1,1.1,0,0,0,.6-.9c.1-.1,0-.3,0-.4a.3.3,0,0,1,.1-.2l.5-.5.6-.4a.7.7,0,0,0,.2-.7H333a2.4,2.4,0,0,0,2.4-1.3,1.3,1.3,0,0,0,.2-.8v-.3a2.1,2.1,0,0,1-.3,1,2,2,0,0,1-.8.8,2.3,2.3,0,0,1-1.4.4H333a.8.8,0,0,1-.2.5,1,1,0,0,1-.5.4l-.6.5a.6.6,0,0,0-.1.4v.4a1.8,1.8,0,0,1-.5.7,1.3,1.3,0,0,1-.8.3,2.1,2.1,0,0,1-1.6-.3h-.1a4.6,4.6,0,0,1-1.4,1.6Z" style="fill:#455a64"/><path d="M348.5,178.9h0v-.3a2.8,2.8,0,0,0-.5-.9,9.1,9.1,0,0,0-1-1.3l-.8-.6-.6-.2a.7.7,0,0,0-.6.2h.2a1.7,1.7,0,0,0-3.1-.6h.2a1.1,1.1,0,0,0-.7-.8,1.1,1.1,0,0,0-1.1.2.7.7,0,0,0-.4.5h.2a.7.7,0,0,0-.4-.5h-.7a2,2,0,0,0-.9.6h.1a1.8,1.8,0,0,0-1.3-.4,2.4,2.4,0,0,0-1.2.3,7.8,7.8,0,0,0-1.6,1.5h.1c.1-.1,0-.3-.1-.4l-.4-.2h-.7l-.9.6-.5.5a.3.3,0,0,0-.1.2l.6-.6.9-.5h.7c.2,0,.4.2.3.4v.3l.2-.2a5.8,5.8,0,0,1,1.6-1.5,3.5,3.5,0,0,1,1.1-.3,1.9,1.9,0,0,1,1.2.4h.1l.9-.5a.7.7,0,0,1,.8.4v0l.3-.4a.8.8,0,0,1,.9-.1.9.9,0,0,1,.6.6v.3l.2-.3a1.6,1.6,0,0,1,1.6-.6,1.6,1.6,0,0,1,1.1,1.2v.2l.2-.2c.2-.2.6-.1.9.1l.7.6,1.1,1.1C348.4,178.4,348.4,178.9,348.5,178.9Z" style="fill:#455a64"/><path d="M349.2,186.6v-.2a4.3,4.3,0,0,0,.1-.5,1.7,1.7,0,0,0,0-1,1,1,0,0,0-.4-.5.9.9,0,0,0-.7-.3h.1a1,1,0,0,0-.3-1.2,1.1,1.1,0,0,0-1.4-.2h.1a.9.9,0,0,0-.3-1.1,1.7,1.7,0,0,0-1.2-.2l-.6.2a.5.5,0,0,1-.4-.2l-.5-.5h-.7a7,7,0,0,0-1.4.3,1.1,1.1,0,0,1-1.1,0c-.2,0-.3-.2-.5-.3l-.6-.3a1.6,1.6,0,0,0-1.2.4h.2a1.2,1.2,0,0,0-.5-1.1,1.8,1.8,0,0,0-1-.2,8.4,8.4,0,0,0-1.6.7l-.9.7-.3.3,1.2-.9a5.9,5.9,0,0,1,1.6-.6,1.5,1.5,0,0,1,.9.2.8.8,0,0,1,.4.9l-.2.4.4-.3a.8.8,0,0,1,.9-.3l.5.2.5.4h1.4l1.3-.3a.4.4,0,0,1,.5.1l.5.4.6.3.6-.2a1.1,1.1,0,0,1,1,.1.7.7,0,0,1,.3.8v.4l.3-.2a1,1,0,0,1,1.2.1,1.1,1.1,0,0,1,.3,1.1h0a.9.9,0,0,1,.9.6,1,1,0,0,1,.1.9A2,2,0,0,1,349.2,186.6Z" style="fill:#455a64"/><path d="M355.1,199.5h.2a1.5,1.5,0,0,0,.4-.6,1.6,1.6,0,0,0,.1-1.2,2,2,0,0,0-.9-1.3v.2a5.7,5.7,0,0,0,.3-1.5l-.3-.8a1.2,1.2,0,0,0-.8-.4v.2a1.6,1.6,0,0,0,.2-1.5,1.2,1.2,0,0,0-.5-.7,2,2,0,0,0-.8-.4.5.5,0,0,1-.5-.3,2.1,2.1,0,0,0-.3-.7,2.8,2.8,0,0,0-1.3-.7l-1.1-.4a4.2,4.2,0,0,0-1.8-.3h0l1.7.3,1.2.5a1.9,1.9,0,0,1,1.1.7,1.6,1.6,0,0,1,.3.6.5.5,0,0,0,.3.4h.4a1.3,1.3,0,0,1,.9,2.1l-.2.2h.3a.9.9,0,0,1,.8,1,5.9,5.9,0,0,1-.2,1.3h0a1.9,1.9,0,0,1,.9,1.1,1.9,1.9,0,0,1-.1,1.1C355.4,199.3,355,199.5,355.1,199.5Z" style="fill:#455a64"/><path d="M326.4,186l.7-.6.5-.7a1.7,1.7,0,0,0-.1-1.2l-.2-.2v.2a1.4,1.4,0,0,0,.4-1,.9.9,0,0,0-.4-.8,1.3,1.3,0,0,0-.7-.3l.6.4.3.7a1,1,0,0,1-.4.8h.2a1.7,1.7,0,0,1,0,1,1.6,1.6,0,0,1-.4.7Z" style="fill:#455a64"/><path d="M319.8,184.9a1.1,1.1,0,0,1-.5-.8,1.4,1.4,0,0,1,.4-1,1.2,1.2,0,0,1,1.3-.1h.2v-.3a2.5,2.5,0,0,1,.1-.8,1.5,1.5,0,0,1,.5-.6c.4-.2.9.1.9.4h.3a2,2,0,0,1,.3-1.5,2.3,2.3,0,0,1,1-.7c.6-.2,1.1,0,1.1-.1h-1.2a2.3,2.3,0,0,0-1.1.7,2.2,2.2,0,0,0-.4,1.6h.3a.6.6,0,0,0-.5-.6,1.1,1.1,0,0,0-.8-.1,1.2,1.2,0,0,0-.6.8,3.8,3.8,0,0,0-.1,1l.2-.2a1.3,1.3,0,0,0-1.5.3,1.1,1.1,0,0,0-.4,1.1,1.1,1.1,0,0,0,.3.7Z" style="fill:#455a64"/><path d="M339.7,195.8c.2-.1,5.3-4.1,7.5,1.9s-4.3,7-4.4,6.8Z" style="fill:#c78976"/><path d="M343.8,201.5h.4a.7.7,0,0,0,.7-.3,2.4,2.4,0,0,0,.4-2.7,3.7,3.7,0,0,0-.8-1.4,1.7,1.7,0,0,0-1.1-.6.6.6,0,0,0-.5.6c-.1.2,0,.3,0,.3a.4.4,0,0,1-.2-.3.9.9,0,0,1,.1-.5,1,1,0,0,1,.5-.4,1.8,1.8,0,0,1,1.5.6,3.8,3.8,0,0,1,.9,1.5,3,3,0,0,1-.6,3.2,1.8,1.8,0,0,1-1,.2Q343.8,201.6,343.8,201.5Z" style="fill:#8b5d54"/><path d="M326.7,288s12,1.4,20-3.9,18-25.8,18-25.8-20,23.2-39,26.2Z" style="opacity:0.30000000000000004"/><path d="M349.4,238.6l-19.7,25.7-47.6,7,2.5,15.8,47.3-2.8a26.9,26.9,0,0,0,18.1-9.1c5.8-6.4,13.7-15.4,18.6-21.6a12.2,12.2,0,0,0-2.9-17.8h0A12.3,12.3,0,0,0,349.4,238.6Z" style="fill:#647dee"/><path d="M369.8,400.2c-.1.1-3.2-14-6.8-31.3s-6.5-31.4-6.4-31.4,3.2,14,6.9,31.3S369.9,400.2,369.8,400.2Z" style="fill:#455a64"/><path d="M398.1,388.8c.1.1-.6,1-1.6,2.1s-1.9,1.7-2,1.6.6-1,1.6-2S398,388.7,398.1,388.8Z" style="fill:#455a64"/><path d="M357.1,229.6l-.5.7-1.4,1.8-5.5,7-19.8,25.3h-.1l-47.7,7,.3-.3c.4,2.9.9,6,1.4,9.1s.8,4.7,1.2,6.9l-.3-.2,50.4-3.1h0a28,28,0,0,0,8.7-3.6,28.9,28.9,0,0,0,6.4-5.5l9.1-10.5,5.9-6.7,1.5-1.8.6-.6-.5.7-1.5,1.8c-1.4,1.5-3.3,3.8-5.8,6.7l-9,10.6a28.9,28.9,0,0,1-15.3,9.3h-.1l-50.4,3.2h-.2v-.3c-.3-2.3-.7-4.6-1.1-6.9s-1-6.2-1.5-9.1v-.2h.3l47.6-6.9h-.1L349.5,239l5.6-7,1.5-1.8Z" style="fill:#263238"/><path d="M363,283.4l-.6,1c-.4.7-1.1,1.6-1.9,2.7a48.2,48.2,0,0,1-7.5,7.7,41.3,41.3,0,0,1-9.2,5.7,20.8,20.8,0,0,1-3,1.3l-1.1.4c-.1-.1,1.5-.7,4-2a50.7,50.7,0,0,0,8.9-5.8,49.1,49.1,0,0,0,7.6-7.5A42.6,42.6,0,0,1,363,283.4Z" style="fill:#263238"/><path d="M367.3,290.5c.1.1-4.1,2.6-9.4,5.6s-9.7,5.4-9.7,5.3,4.1-2.7,9.4-5.7S367.3,290.3,367.3,290.5Z" style="fill:#263238"/><path d="M319.8,262.4l-.3-1a25.5,25.5,0,0,1-.8-2.8l-2.6-9.1-2.5-9.2c-.3-1.1-.5-2.1-.7-2.9s-.2-1-.2-1,.2.3.4,1l.9,2.8c.7,2.3,1.6,5.5,2.6,9.1s1.8,6.9,2.4,9.2A20.3,20.3,0,0,1,319.8,262.4Z" style="fill:#263238"/><g style="opacity:0.30000000000000004"><path d="M344.4,305.3c4.7-.5,9.4-.6,13.8-2.4s8.4-4.9,10.3-9.2A157,157,0,0,1,344.4,305.3Z"/></g><path d="M261.4,291.9l-1.8,1.7a9.4,9.4,0,0,0-2,3.3,14.5,14.5,0,0,1-.7,2.6l-1.9,6.2,7.2,5.3,1.1-5.2a17.9,17.9,0,0,0,4.6-2.7c1.6-1.6,2.3-2.3,2.7-3.6a1.9,1.9,0,0,0-.1-1.5s-.1-2.8-1.2-2.9a3.7,3.7,0,0,0,.2-2.3c-.6-1.4-2.6-1.3-2.6-1.3a.6.6,0,0,0-.1-1.1,1,1,0,0,0-1.3.2l-4,3.6Z" style="fill:#ffbe9d"/><path d="M203.8,309.9a11,11,0,0,0,2,14.3c9.5,8.3,35.2,22.7,39.1,22.1,5.6-1,20.2-33.4,20.2-33.4l-10.9-9-13.6,22s-11.1-10.5-19.9-17.5c-5.3-4.2-13.3-4.3-16.9,1.5Z" style="fill:#647dee"/><path d="M220.2,308l.4.3,1,.9,4.2,3.5,15,13.1h-.3l13.5-22,.2-.2.2.2,10.8,8.9h.2v.2l-3.7,7.9c-2.3,4.7-4.7,9.3-7.1,13.6-1.2,2.1-2.5,4.2-3.8,6.2l-2.1,2.8a14.8,14.8,0,0,1-2.5,2.5,2.6,2.6,0,0,1-1.7.5l-1.7-.4-3.1-1.1-5.7-2.7c-3.6-1.9-6.8-3.7-9.8-5.5-5.9-3.4-10.5-6.6-13.6-8.8l-3.5-2.8-.9-.7-.3-.3.4.2.9.8,3.5,2.6c3.1,2.2,7.8,5.3,13.7,8.7,3,1.8,6.2,3.6,9.8,5.4l5.7,2.7,3,1.1,1.6.3a1.8,1.8,0,0,0,1.4-.4,10.9,10.9,0,0,0,2.4-2.4l2.1-2.8c1.3-2,2.5-4,3.8-6.2,2.4-4.3,4.7-8.8,7-13.5,1.3-2.7,2.6-5.4,3.7-7.9v.3l-10.8-9h.3c-5,8.2-9.7,15.6-13.6,21.9v.2h-.2l-14.9-13.2-4-3.6-1.1-1Z" style="fill:#263238"/><path d="M207.6,131.9a4.2,4.2,0,0,1-.5,1,6.3,6.3,0,0,0,.2,6.6l2.3,3.5.2,5.3,11.7,2.8-.6-9.4s1.9-4,2-6.7-.7-5.5-1.6-5.7h-1.2a4.2,4.2,0,0,0-2.3-1.9s-.7-3.4-1.9-3.7a2.7,2.7,0,0,0-2.3.9s-1.4-2.9-2.7-2.7a3.1,3.1,0,0,0-2.6,3l-.7,7.4Z" style="fill:#ffd6bd"/><path d="M180.5,21.8a3,3,0,0,0-3.7-1.9,2.9,2.9,0,0,0-1.9,3.7L315,470l6.1.3Z" style="fill:#e0e0e0"/><path d="M184.1,27.7S146.9,53.1,118,55.4,56.6,59.9,39.5,79.1c0,0,63.3,10,66.9,18.4,0,0-37.9,30-43.6,47.3,0,0,27.2-9.6,32.8-12,18.7-7.9,55-4.4,68.8-9.4s29.8-21,42.4-23.5Z" style="fill:#647dee"/><polygon points="141 60.1 152.8 72 169.2 69 161.6 83.8 169.5 98.5 153 95.9 141.5 107.9 138.9 91.4 123.9 84.2 138.8 76.7 141 60.1" style="fill:#fff;opacity:0.30000000000000004"/><path d="M172.7,53.7l-.3.7c-.1.4-.4,1.1-.7,1.9l-1.2,3c-.5,1.1-1.1,2.5-1.8,3.9s-1.5,3-2.4,4.6-2,3.4-3,5.2a131.7,131.7,0,0,1-8,11.1A117.1,117.1,0,0,1,146,94.2l-4.4,4-4.1,3.3c-1.2,1-2.4,1.8-3.4,2.5l-2.7,1.9-1.7,1.1-.7.3.6-.4,1.7-1.2,2.6-1.9,3.4-2.6,4-3.3c1.4-1.2,2.8-2.6,4.4-4.1a131.4,131.4,0,0,0,9.2-10c3-3.8,5.7-7.6,8-11.1l3-5.1c.9-1.6,1.7-3.2,2.4-4.6a34.4,34.4,0,0,0,1.9-3.9,22.1,22.1,0,0,0,1.3-2.9,20.5,20.5,0,0,0,.8-1.9C172.5,53.9,172.6,53.7,172.7,53.7Z" style="fill:#263238"/><path d="M193.7,92.4a1.5,1.5,0,0,0-.2-.6l-.5-1.6c-.5-1.4-1.1-3.4-1.9-5.8l-5.9-19.5c-2.3-7.6-4.3-14.5-5.7-19.5-.7-2.5-1.3-4.6-1.6-6s-.3-1.2-.4-1.6v-.5h.1c-.1-.1,0,.1,0,.5a10.3,10.3,0,0,1,.5,1.6l1.7,5.9c1.6,5,3.6,11.9,5.9,19.5s4.3,14.4,5.8,19.4l1.7,6c.2.6.3,1.2.4,1.6S193.8,92.4,193.7,92.4Z" style="fill:#263238"/><g style="opacity:0.30000000000000004"><path d="M180.7,47.2c.4,9.1.9,18.3,2.9,27.3s5.8,17.6,12.1,24.2q-8.5-25.4-15-51.5"/></g><path d="M257.3,266.7c.3.1,4.8.1,7.5,0a5.5,5.5,0,0,1,3.4,1.3l5.6,5.1,8.3-.9,2.3,13.6-11.4-.4a38,38,0,0,1-8,1.4c-3-.1-6.2-.9-6.3-1.9a8.4,8.4,0,0,1-.2-1.3,4.9,4.9,0,0,1-2-2.7s-3.9-.9-4.2-2.2a3.1,3.1,0,0,1,1.1-2.6s-3.2-1.7-2.9-3.2a3.4,3.4,0,0,1,1.6-2.2l6.2-.8Z" style="fill:#c78976"/><path d="M239.1,261.2a14.4,14.4,0,0,1,1.9,13c-.8,2-2,4.3-1.1,6.3s3.7,2.6,4.5,4.6-1,4.9-1.1,7.5a5.1,5.1,0,0,0,4.2,5.1,20.2,20.2,0,0,1-10.6,1.5l-1.8-4.1a3.6,3.6,0,0,1-1.4,4.2,8,8,0,0,1-4.6,1.3,25.2,25.2,0,0,1-20.3-9.2" style="fill:#263238"/><path d="M194.1,269.2a43.7,43.7,0,0,0,3.1-4.4c1.8-3.3,1.1-7.9,3.7-10.6s4.8-2.4,7.5-2.5,5.6,0,8-1.3,3-2.7,4.7-3.6,5.5-1.3,8.3-.7a16.8,16.8,0,0,1,7.8,3.5,9.4,9.4,0,0,1,3.4,7.7,20.3,20.3,0,0,0-.6,4.2c0,1.6.9,3,1.2,4.5a7.6,7.6,0,0,1-4.1,8.2l-26,19.6c-4.5.4-13.8-4.1-16.1-7.9S191.7,272.9,194.1,269.2Z" style="fill:#263238"/><path d="M237.4,270.9c.7-5.9-1.7-13.7-7.6-14.2l-18.9,1.1a3.5,3.5,0,0,0-3.7,2.9l-6.3,43.8h-.2s1.8,13,14.4,11.5c2.5-.2,3.3.8,4.3-1.8h0v-.3l2.2-9.9h0l1-4.9s7.6.2,10.9-9.2C235.3,285.3,236.6,277.4,237.4,270.9Z" style="fill:#ffbe9d"/><path d="M221.3,276.7a1.3,1.3,0,0,1-2.5-.4,1.4,1.4,0,0,1,1.5-1A1.2,1.2,0,0,1,221.3,276.7Z" style="fill:#263238"/><path d="M234,278.6a1.3,1.3,0,0,1-2.5-.4,1.4,1.4,0,0,1,1.5-1A1.2,1.2,0,0,1,234,278.6Z" style="fill:#263238"/><path d="M235.4,274.9c-.2.2-1.1-.8-2.6-1s-2.6.5-2.8.3a1.4,1.4,0,0,1,.7-.8,3.6,3.6,0,0,1,2.2-.5A3.3,3.3,0,0,1,235,274C235.4,274.4,235.5,274.8,235.4,274.9Z" style="fill:#263238"/><path d="M221.9,272.9c-.2.1-1.1-1-2.7-1.3s-2.8.2-2.9-.1.2-.4.7-.7a4.9,4.9,0,0,1,2.5-.2,3.7,3.7,0,0,1,2,1.3C221.9,272.4,222,272.8,221.9,272.9Z" style="fill:#263238"/><path d="M224.7,283.2H227c.3,0,.7,0,.8-.2a1.9,1.9,0,0,0-.1-1,27.4,27.4,0,0,0-.5-2.8,60,60,0,0,1-1-7.2c.2,0,.9,3.1,1.6,7.1a23.3,23.3,0,0,0,.5,2.8,2.9,2.9,0,0,1-.1,1.3.9.9,0,0,1-.7.4h-.6A10.1,10.1,0,0,1,224.7,283.2Z" style="fill:#263238"/><path d="M222.7,299.1a24.9,24.9,0,0,1-12.3-5.9s1.9,7.2,11.7,8.2Z" style="fill:#eb996e"/><path d="M223.6,286.3a2.8,2.8,0,0,0-2-1.3,2.2,2.2,0,0,0-1.7.5,1.6,1.6,0,0,0-.4,1.6,1.7,1.7,0,0,0,1.7.7,4.7,4.7,0,0,0,1.9-.6c.1-.1.3-.2.4-.4a.4.4,0,0,0,.1-.5" style="fill:#ff725e"/><path d="M220.6,283.4c.3,0,0,1.4,1,2.7s2.6,1.4,2.6,1.6-.4.2-1,.1a3.4,3.4,0,0,1-2.2-1.3,2.9,2.9,0,0,1-.7-2.2C220.3,283.7,220.5,283.3,220.6,283.4Z" style="fill:#263238"/><path d="M223,268.4c-.2.3-1.5-.1-3.1-.2s-3,.1-3.1-.3.2-.5.8-.7a4.3,4.3,0,0,1,2.4-.4,6.3,6.3,0,0,1,2.3.7C222.8,267.9,223.1,268.2,223,268.4Z" style="fill:#263238"/><path d="M235.2,270.7c-.4.2-1.4-.3-2.6-.5s-2.4-.3-2.6-.6.2-.5.7-.7a3.9,3.9,0,0,1,2.2-.1,3.8,3.8,0,0,1,1.9,1C235.2,270.2,235.3,270.6,235.2,270.7Z" style="fill:#263238"/><path d="M206.7,258.1c1.3-1.1,3-1.3,4.7-1.5a95.7,95.7,0,0,1,21.4.3,3.7,3.7,0,0,1-2.4,4,14.7,14.7,0,0,1-5.1.8c-1.7.2-3.5.6-4.5,2s-1.1,3.5-2.1,5-6,2.4-7.8,4.9-.7,4.6-1,6.9a8.4,8.4,0,0,1-4.4,6.4,8.5,8.5,0,0,1-6.1.7c1.7-8.2,3.5-16.5,5.2-24.7C205,261.2,205.4,259.3,206.7,258.1Z" style="fill:#263238"/><path d="M184.8,274.2c1.6-.8,3.5-1.3,4.4-2.9s.3-5.5,2.1-7.3,5-.7,6.6-2.5.6-3,1.3-4.3a3.9,3.9,0,0,1,4.4-1.4l6.7,19.1c-.4,5.6-.1,8.8-2.1,11.6a25.1,25.1,0,0,0-3.2,4.8,5.5,5.5,0,0,0,.4,5.4c-6.8-1.3-12.1-6.4-16.9-11.3l-5.1-5.2a5,5,0,0,1-1.3-1.9C181.6,276.6,183.2,275,184.8,274.2Z" style="fill:#263238"/><path d="M188.8,283.7a1.4,1.4,0,0,0,.7.3,6.4,6.4,0,0,0,2.1.5,7.5,7.5,0,0,0,3.3-.8,6.6,6.6,0,0,0,2.9-3.4,7.5,7.5,0,0,0,.5-2.6,10.1,10.1,0,0,0-.6-2.8,9.4,9.4,0,0,1-.6-2.9,3.1,3.1,0,0,1,1.2-2.7c.8-.6,2-.5,3.1-.7a2.7,2.7,0,0,0,1.7-.6,2.6,2.6,0,0,0,.9-1.6,23.6,23.6,0,0,0,.2-3.7,4.8,4.8,0,0,1,.5-1.7,2.4,2.4,0,0,1,1.3-1.1,7.3,7.3,0,0,1,3.6,0,6.7,6.7,0,0,0,3.7-.1,6,6,0,0,0,3-1.9A8.5,8.5,0,0,0,218,255a18.4,18.4,0,0,1,1.5-2.8,6.6,6.6,0,0,1,2.2-1.9,7.9,7.9,0,0,1,5.1-.9,7.6,7.6,0,0,1,3.9,2,7.8,7.8,0,0,1,2,2.7,14.2,14.2,0,0,1,1,2.6h0c0-.2-.1-.4-.1-.6a8,8,0,0,0-.7-2,11.3,11.3,0,0,0-2-2.8,8,8,0,0,0-4-2,7.5,7.5,0,0,0-5.4.8,7.2,7.2,0,0,0-2.3,2,15.9,15.9,0,0,0-1.5,2.9,11.7,11.7,0,0,1-1.7,2.8,6.8,6.8,0,0,1-2.8,1.8,6.9,6.9,0,0,1-3.5,0,8.6,8.6,0,0,0-3.9,0,3.2,3.2,0,0,0-1.5,1.3,5.9,5.9,0,0,0-.5,1.9c-.1,1.2.1,2.4-.1,3.6a3.9,3.9,0,0,1-.8,1.4,4.7,4.7,0,0,1-1.5.6h-1.7a3.5,3.5,0,0,0-1.7.6,4,4,0,0,0-1.2,3,9.4,9.4,0,0,0,.6,3,13.1,13.1,0,0,1,.6,2.7,6.6,6.6,0,0,1-.5,2.5,5.8,5.8,0,0,1-2.8,3.3,6.5,6.5,0,0,1-3.1.8A7,7,0,0,1,188.8,283.7Z" style="fill:#455a64"/><path d="M183,269.9l-.3.5a2.2,2.2,0,0,0-.2,1.7,2.4,2.4,0,0,0,.6,1.1,2.9,2.9,0,0,0,1.3.8,3.3,3.3,0,0,0,3.4-1.1,4,4,0,0,0,1.1-1.9,5.9,5.9,0,0,0,.1-2.3c-.2-1.6-.7-3.2-.3-4.9a3.1,3.1,0,0,1,1.4-2.1,3.8,3.8,0,0,1,2.6-.1,9.4,9.4,0,0,0,3,.5,2.7,2.7,0,0,0,1.4-.7,3,3,0,0,0,.9-1.3,15.9,15.9,0,0,0,.6-3,7.7,7.7,0,0,1,.8-2.7,7.3,7.3,0,0,1,4.2-3.2,10.1,10.1,0,0,1,4.9.2,17,17,0,0,0,4.4.5,12,12,0,0,0,3.5-1.1,9.8,9.8,0,0,0,2.2-1.7,5.7,5.7,0,0,0,1.3-1.8,16.6,16.6,0,0,1-1.4,1.7,14,14,0,0,1-2.2,1.6,9,9,0,0,1-3.4,1,16.3,16.3,0,0,1-4.3-.5,9.7,9.7,0,0,0-5.1-.3,7.7,7.7,0,0,0-4.4,3.4,6.6,6.6,0,0,0-.9,2.8,13.6,13.6,0,0,1-.6,2.9,2.5,2.5,0,0,1-2,1.8,6.9,6.9,0,0,1-2.8-.5,4.2,4.2,0,0,0-2.9.2,3.8,3.8,0,0,0-1.6,2.3,7.6,7.6,0,0,0,0,2.6c.1.9.3,1.7.4,2.4a14.8,14.8,0,0,1-.1,2.2,4,4,0,0,1-1,1.8,3.2,3.2,0,0,1-3.1,1.1,3.5,3.5,0,0,1-1.2-.7,1.7,1.7,0,0,1-.6-1.1,2.8,2.8,0,0,1,0-1.6C182.9,270,183.1,269.9,183,269.9Z" style="fill:#263238"/><path d="M251.8,292.8a2.2,2.2,0,0,1-.5,1.7,2.4,2.4,0,0,1-1.7,1.1,2.8,2.8,0,0,1-2.3-1.4,2.5,2.5,0,0,1-.2-1.5,4.8,4.8,0,0,1,.8-1.6c.6-1,1.7-2.1,1.9-3.6a5.1,5.1,0,0,0-.9-4.3,5.8,5.8,0,0,0-1.8-1.7l-2.3-1-2.2-.8a3.3,3.3,0,0,1-1.5-1.6,5.5,5.5,0,0,1-.1-2.2,8,8,0,0,1,.7-2,13.7,13.7,0,0,0,1.7-3.7,5.8,5.8,0,0,0-.3-3.5,6.4,6.4,0,0,0-1.7-2.4,15.3,15.3,0,0,1-1.4-1.7,3.3,3.3,0,0,1-.7-1.7h0v.4a3.6,3.6,0,0,0,.6,1.3,15.5,15.5,0,0,0,1.3,1.7,8.4,8.4,0,0,1,1.6,2.4,6.1,6.1,0,0,1,.3,3.3,15.3,15.3,0,0,1-1.7,3.7,10.2,10.2,0,0,0-.8,2.1,4.6,4.6,0,0,0,.2,2.3,3.1,3.1,0,0,0,1.6,1.8,9.2,9.2,0,0,0,2.3.9,14.5,14.5,0,0,1,2.2.9,12.9,12.9,0,0,1,1.7,1.6,5.5,5.5,0,0,1,.9,4.1,11.4,11.4,0,0,1-1.9,3.4,5.3,5.3,0,0,0-.8,1.7,2.8,2.8,0,0,0,.3,1.8,2.6,2.6,0,0,0,2.5,1.4,2.9,2.9,0,0,0,1.9-1.2,2.7,2.7,0,0,0,.4-1.3A1.2,1.2,0,0,0,251.8,292.8Z" style="fill:#263238"/><path d="M121.8,440.4l19.5-4.1,3.2,15.9-14.3.4v12.9c6.5,1.8,7.4,5,7.4,5l-13.5-.3-11.6-23.7Z" style="fill:#ff725e"/><g style="opacity:0.6000000000000001"><polygon points="112.6 446.5 124.2 470.2 137.7 470.5 136.2 468.5 125.3 467.6 114.5 445.2 112.6 446.5" style="fill:#fff"/></g><path d="M130.4,459.6a12.6,12.6,0,0,0-1.9-.4c-1.1,0-1.8.5-1.9.3s.6-.9,1.9-.9S130.5,459.4,130.4,459.6Z" style="fill:#263238"/><path d="M130.2,456.3c-.1.1-.7-.7-1.7-.9a8.8,8.8,0,0,0-2.1.1c0-.1.2-.3.5-.5a3,3,0,0,1,1.7-.2,3.8,3.8,0,0,1,1.4.9C130.3,456,130.3,456.3,130.2,456.3Z" style="fill:#263238"/><path d="M130.4,452.2c-.1.1-.6-.7-1.5-1a4.7,4.7,0,0,0-1.8-.2c-.1-.1.1-.3.5-.4a2.5,2.5,0,0,1,1.5,0,3.2,3.2,0,0,1,1.2,1C130.5,452,130.5,452.2,130.4,452.2Z" style="fill:#263238"/><path d="M131.4,452.2c-.2,0-.1-.8-.5-1.8s-1-1.4-.9-1.5,1,.2,1.5,1.3S131.6,452.3,131.4,452.2Z" style="fill:#263238"/><path d="M133,450.7a5,5,0,0,1-.3-1.8c-.1-.6-.1-1.3-.2-1.9a5.6,5.6,0,0,1,0-1.3,1.5,1.5,0,0,1,.5-.7,1,1,0,0,1,.9.1c.5.3.6.8.8,1.2a5,5,0,0,1,.2,1.2,4,4,0,0,1-.4,2c-.4,1.1-1.1,1.5-1.1,1.4s.4-.5.8-1.5a10.1,10.1,0,0,0,.2-1.9l-.3-1a1.5,1.5,0,0,0-.5-.9h-.3a.5.5,0,0,0-.2.4,3.1,3.1,0,0,0-.1,1,13.4,13.4,0,0,1,.1,2A5.4,5.4,0,0,1,133,450.7Z" style="fill:#263238"/><path d="M133.2,451.3a3.1,3.1,0,0,1,1.4-1,3.4,3.4,0,0,1,3.8,1.4.4.4,0,0,1-.1.5q-.2.3-.3.3h-1.7a4.8,4.8,0,0,1-1.8-.4c-1-.4-1.4-.9-1.4-1l1.5.6a8.6,8.6,0,0,0,1.7.3h1.5c.1-.1,0-.1,0-.1l-.2-.3-.4-.3-.9-.5a4.3,4.3,0,0,0-1.6,0C133.8,450.9,133.3,451.4,133.2,451.3Z" style="fill:#263238"/><g style="opacity:0.6000000000000001"><path d="M123.3,446.3a1.7,1.7,0,0,1-1.7,1.6,1.7,1.7,0,0,1-1.5-1.7,1.4,1.4,0,0,1,1.6-1.5A1.6,1.6,0,0,1,123.3,446.3Z" style="fill:#fff"/></g><path d="M269.5,442.2l-.2,17.5s18.7,7,19,10.2h-35l-.8-27.4Z" style="fill:#ff725e"/><g style="opacity:0.6000000000000001"><path d="M258.7,458.5a1.4,1.4,0,0,0-.9,1.6,1.3,1.3,0,0,0,1.6,1,1.5,1.5,0,0,0,1-1.7c-.3-.7-1.2-1.2-1.8-.8" style="fill:#fff"/></g><g style="opacity:0.6000000000000001"><path d="M253.3,469.9v-2.7l32.7.2s2.4,1.5,2.3,2.5Z" style="fill:#fff"/></g><path d="M269.9,459.6a9.1,9.1,0,0,0-1.7.8c-.8.5-1.2,1.2-1.4,1.2a2,2,0,0,1,1.1-1.7C268.9,459.2,269.9,459.4,269.9,459.6Z" style="fill:#263238"/><path d="M273.5,460.9c0,.2-.7.5-1.3,1.2s-.6,1.5-.8,1.5-.3-1,.4-1.8A2,2,0,0,1,273.5,460.9Z" style="fill:#263238"/><path d="M275.6,465.2a1.7,1.7,0,0,1,0-1.7c.4-1,1.2-1.3,1.3-1.2s-.4.6-.8,1.4S275.8,465.1,275.6,465.2Z" style="fill:#263238"/><path d="M269.4,455.5c0,.2-.8,0-1.7.1s-1.7.4-1.8.2.6-.7,1.7-.8S269.5,455.4,269.4,455.5Z" style="fill:#263238"/><g style="opacity:0.30000000000000004"><polygon points="269.4 445.6 269.4 448.8 252.7 449.1 252.6 446.2 269.4 445.6"/></g><path d="M269.4,452c0,.1-.6.2-1.7,0a4.9,4.9,0,0,1-1.8-.5l-1-.5-.5-.4a.6.6,0,0,1-.1-.8.9.9,0,0,1,.7-.4h.7l1,.4a3.7,3.7,0,0,1,1.6,1,4.8,4.8,0,0,1,1.1,1.3c-.1.1-.5-.4-1.3-1a6,6,0,0,0-1.6-.8,2.9,2.9,0,0,0-1-.3c-.3-.1-.6-.1-.7.1a.1.1,0,0,0,0,.2l.4.2.9.5,1.7.6A14.7,14.7,0,0,1,269.4,452Z" style="fill:#263238"/><path d="M269.2,452.2a2.7,2.7,0,0,1-.5-1.6,6.8,6.8,0,0,1,.2-1.9,4.2,4.2,0,0,1,.4-1,1.3,1.3,0,0,1,1.1-.9.8.8,0,0,1,.7.4,6.4,6.4,0,0,0,.2.7,2,2,0,0,1,0,1.1,3.3,3.3,0,0,1-.7,1.8,2.6,2.6,0,0,1-1.3,1.1c-.1-.1.5-.5,1-1.3a6,6,0,0,0,.5-1.6,3.1,3.1,0,0,0-.1-1c0-.4-.2-.7-.3-.6a.7.7,0,0,0-.6.5l-.4,1a5.5,5.5,0,0,0-.3,1.7C269.1,451.6,269.3,452.2,269.2,452.2Z" style="fill:#263238"/><path d="M176.6,405c1.2,0,7,23.4,7,23.4l-53.1,7.9,3.4,21.2s62.6-4.2,66.9-5.2c7.7-1.8,13.4-9.1,13.2-18.8s-6.8-37.5-6.8-37.5Z" style="fill:#263238"/><path d="M210,408.8,179.2,411s2.6,5.4,11.2,6,21.4,0,21.4,0Z" style="opacity:0.30000000000000004"/><path d="M275.7,387.1a18.4,18.4,0,0,0-18.5-16.9h-9.5l-51,2.6L169,364.4s-9.6,17.2-4.1,31.6a26.6,26.6,0,0,0,20.4,16.7c11.5,1.9,64.3-9.2,64.3-9.2v47l24-.6,2.2-61.9C275.8,387.7,275.7,387.4,275.7,387.1Z" style="fill:#263238"/><path d="M249.6,403.5h-.3l-.9.2-3.6.6-13.2,2.4-19.5,3.5-11.6,2a52.2,52.2,0,0,1-12.6.7,33.1,33.1,0,0,1-6.3-1,31.9,31.9,0,0,1-5.9-2.1,23.6,23.6,0,0,1-8.4-8.2,28.4,28.4,0,0,1-3.9-9.9,26.2,26.2,0,0,1-.3-9.2,59.6,59.6,0,0,1,3.4-12.9c.6-1.5,1.1-2.6,1.5-3.4l.5-.8.2-.3-.2.3-.4.9-1.4,3.3a64,64,0,0,0-3.3,12.9,32.3,32.3,0,0,0,.4,9.2,29.5,29.5,0,0,0,3.9,9.7,22.6,22.6,0,0,0,8.3,7.9,21.6,21.6,0,0,0,5.7,2.1,41.4,41.4,0,0,0,6.3,1,50.5,50.5,0,0,0,12.4-.7l11.6-2,19.6-3.3,13.2-2.3,3.5-.5,1-.2Z" style="fill:#455a64"/><path d="M186.7,453.8h-1l-3,.3-11,.8-37.8,2.7h-.3v-.2c-.9-5.5-1.8-11.3-2.7-17.3-.3-1.3-.5-2.6-.7-3.9v-.2h.3l53-7.8h.1a35.6,35.6,0,0,1,7.9,5.2,17.7,17.7,0,0,1,1.9,1.8l.4.4a.3.3,0,0,1,.1.2h-.1c-.2-.1-.3-.3-.5-.5l-1.9-1.6a41.7,41.7,0,0,0-7.9-5.1h.1l-53.1,8,.2-.3c.2,1.3.5,2.6.7,4,.9,5.9,1.8,11.8,2.7,17.2l-.3-.2,37.9-2.5,11-.7h4Z" style="fill:#455a64"/><path d="M254.9,397.8a15.2,15.2,0,0,0-3.2,2.3c-1.6,1.6-2,3.5-2.2,3.4a4.8,4.8,0,0,1,.2-1.2,8,8,0,0,1,1.6-2.5,5.6,5.6,0,0,1,2.4-1.7C254.4,397.8,254.9,397.7,254.9,397.8Z" style="fill:#455a64"/><path d="M212.1,372.2l-1.5.2-3.9.3c-3.3.2-7.8.3-12.9.3l-12.9.3-3.9.3h-1.4l1.4-.3,3.9-.4c3.3-.3,7.9-.4,12.9-.5l12.9-.2h5.4Z" style="fill:#455a64"/><path d="M201.8,297.7l-.5.7a19.5,19.5,0,0,0-14.7,13.8c-1.9,6.9-2.5,19.5-6.5,36.7,0,0-9.8,8.9-11.6,15.5l28.2,8.5,15.4-.9,5.9-18.4c5.7,0,8.2-2.9,10.3-7.6,2.7-6.3-6.4-35.1-6.4-35.1l.7,4.9Z" style="fill:#647dee"/><path d="M226,322.1l6.9,13.9-4.2.6S226.1,323.1,226,322.1Z" style="opacity:0.30000000000000004"/><path d="M220.8,353.6c0-.1.5-.2,1.3-.5a10.6,10.6,0,0,0,3.1-2.3,12.2,12.2,0,0,0,2.8-4.9,17.1,17.1,0,0,0,.7-6.9,48.6,48.6,0,0,0-1.2-7c-.4-2.1-.9-4-1.1-5.6s-.4-3-.5-3.9a8.5,8.5,0,0,1,.1-1.5,7.9,7.9,0,0,1,.1,1.4q.2,1.5.6,3.9c.3,1.6.8,3.5,1.3,5.6a47.7,47.7,0,0,1,1.2,7.1,18.3,18.3,0,0,1-.7,7.1,14.1,14.1,0,0,1-3,5,9.2,9.2,0,0,1-3.3,2.1l-1.1.3Z" style="fill:#263238"/><path d="M188.1,324.4s9.5,32.8,15.7,37.8a8.7,8.7,0,0,0,11.6-.1l1.1-5.7Z" style="opacity:0.30000000000000004"/><path d="M278,321.7c-1.1-.9-1.7-.6-1.7-.6s.5-2.6-.8-3.6l-.8-.5c-.2-.3-1-2.2-2.4-2.6s-.2-2.5-1.3-2.7-2.8,1.7-2.8,1.7l-3.6,6.8-1.7,7-29.4,13.7,3.1,13.5,33-17.1,5.9-5.6S279.1,322.7,278,321.7Z" style="fill:#ffbe9d"/><path d="M190.3,314.5c0,1,16.6,44.3,24.4,47.3C217.7,363,263,346,263,346l-5.5-16.7s-31.7,10.7-32.7,10.6-11-27.4-11-27.4-6.2-13-15.5-8.9C192.3,306.1,190.3,314.5,190.3,314.5Z" style="fill:#647dee"/><path d="M224.8,339.9l.5-.2,1.8-.6,6.6-2.2,23.7-7.8h.2v.2c1.7,5,3.5,10.7,5.5,16.6v.3h-.2c-7.1,2.8-14.9,5.7-23.1,8.6-4.9,1.8-9.8,3.5-14.6,4.9a62.9,62.9,0,0,1-7.1,2,9.7,9.7,0,0,1-1.8.3l-.9.2h-.9a7.8,7.8,0,0,1-2.9-2.1,46.5,46.5,0,0,1-3.9-5.5l-3.1-5.5-4.9-10.3c-2.8-6.3-4.8-11.5-6.3-15.1-.6-1.8-1.2-3.2-1.5-4.2a7.6,7.6,0,0,1-.4-1.1,1,1,0,0,1-.1-.4,1,1,0,0,0,.1.4l.5,1.1,1.6,4.1c1.5,3.6,3.6,8.8,6.5,15.1,1.4,3.1,3,6.6,4.9,10.2l3.1,5.5a27.8,27.8,0,0,0,3.9,5.3,6.3,6.3,0,0,0,2.6,2,3.3,3.3,0,0,0,1.7-.1,10.1,10.1,0,0,0,1.7-.3c2.3-.5,4.7-1.2,7.1-1.9,4.7-1.5,9.6-3.2,14.6-5l23-8.5v.3c-2-6-3.9-11.6-5.5-16.7h.2l-23.8,7.7-6.6,2-1.7.6Z" style="fill:#263238"/><path d="M200.9,303.2h1.8a10.5,10.5,0,0,1,4.7,1.4,12.7,12.7,0,0,1,2.6,2.2,19.2,19.2,0,0,1,2.3,3.1,44.8,44.8,0,0,1,4,7.9,143.9,143.9,0,0,1,5.6,15c.7,2,1.2,3.5,1.5,4.6l.5,1.8a6.3,6.3,0,0,1-.7-1.7c-.4-1.2-.9-2.7-1.6-4.6-1.4-3.8-3.2-9.2-5.7-14.9a58.2,58.2,0,0,0-4-7.9,23.7,23.7,0,0,0-2.3-3,12,12,0,0,0-2.4-2.2,9.8,9.8,0,0,0-4.5-1.5Z" style="fill:#263238"/><path d="M272.3,314.5a5.2,5.2,0,0,1-.9,2c-.6,1-1.1,1.8-1.3,1.7a5.9,5.9,0,0,1,.9-2C271.6,315.2,272.1,314.5,272.3,314.5Z" style="fill:#eb996e"/><path d="M274.3,316.9c.1.1-.3.9-.9,1.8s-1,1.8-1.1,1.7.1-.9.7-1.9S274.2,316.8,274.3,316.9Z" style="fill:#eb996e"/><path d="M276.3,321.1c.1.1-.1.7-.4,1.4s-.7,1.2-.8,1.1,0-.6.3-1.4S276.2,321,276.3,321.1Z" style="fill:#eb996e"/><path d="M224.8,339.5c.2.1-.8,1.6-1.5,3.7a37.7,37.7,0,0,0-1.1,3.8c-.2,0-.2-1.9.6-4A7.3,7.3,0,0,1,224.8,339.5Z" style="fill:#263238"/><path d="M234,188.6l-7.9-3.2a3,3,0,0,0,.8,3.9,17.7,17.7,0,0,0,4.7,3.1s.9,4,2.9,6,6.6-1.1,6.6-1.1S241.1,191.3,234,188.6Z" style="fill:#c78976"/><path d="M245.8,214.3c-.9-1.4-1.9-.6-1.9-.6s1.1-2.8-.2-4.1a3,3,0,0,1-.8-.7c-.1-.4-.7-2.6-2.2-3.2,0,0,0-2.7-1.1-3.1s-3.8,1.4-3.8,1.4l-4.5,6.7-6.8,11.2,3.8,12,10.7-6.7,2.2-2S246.9,215.8,245.8,214.3Z" style="fill:#ffd6bd"/><path d="M240.8,205.6a4.4,4.4,0,0,1-.7,1.7c-.6.8-1.1,1.5-1.2,1.4s.2-.8.7-1.7S240.7,205.5,240.8,205.6Z" style="fill:#ffb394"/><path d="M242.9,208.7a4.7,4.7,0,0,1-1,2.6c-.9,1.3-2,1.9-2.1,1.8s.9-.9,1.7-2.1A25.8,25.8,0,0,1,242.9,208.7Z" style="fill:#ffb394"/><path d="M243.9,213.3a2.7,2.7,0,0,1-.7,1.6c-.7.8-1.4,1.2-1.4,1.1s.4-.7.9-1.4S243.7,213.2,243.9,213.3Z" style="fill:#ffb394"/><path d="M223.3,199.1a13.5,13.5,0,0,0,4.7,3.5,4.1,4.1,0,0,0,2.4.4,1.9,1.9,0,0,0,1.5-1.7,3.1,3.1,0,0,0-1-1.5l-3.6-3.4a11.5,11.5,0,0,0,1.4,1.7,2.4,2.4,0,0,0,2.1.6,1.5,1.5,0,0,0,1.3-1.6,2.3,2.3,0,0,0-.6-1.2c-1.6-1.9-3.1-3.9-4.7-5.9" style="fill:#c78976"/><path d="M231.8,201.7c.1,0,.1.2,0,.5a3.6,3.6,0,0,1-.9.8,3.5,3.5,0,0,1-1.8.5,3.9,3.9,0,0,1-2.1-.6c-2.8-1.6-4-4-3.8-4a17.8,17.8,0,0,0,4,3.5,3.8,3.8,0,0,0,1.9.6,2.7,2.7,0,0,0,1.6-.3A1.9,1.9,0,0,0,231.8,201.7Z" style="fill:#8b5d54"/><path d="M232,197.7a1.8,1.8,0,0,1-.1.5,2.3,2.3,0,0,1-1.1.6,4.9,4.9,0,0,1-3.8-1,10.7,10.7,0,0,1-2.4-3.2c-.4-.9-.6-1.5-.5-1.5l.9,1.3a11.5,11.5,0,0,0,2.3,3,5.6,5.6,0,0,0,3.4,1.1A1.8,1.8,0,0,0,232,197.7Z" style="fill:#8b5d54"/><path d="M230.7,203l.4.2a1.8,1.8,0,0,1,.6,1.3,1.8,1.8,0,0,1-.9,1.8,3,3,0,0,1-2.6.1,9.3,9.3,0,0,1-3.6-2.6c-.7-.8-1-1.5-.9-1.5s.4.5,1.2,1.3a10.6,10.6,0,0,0,3.5,2.3,2.2,2.2,0,0,0,2.1,0,1.6,1.6,0,0,0,.9-1.4,2.3,2.3,0,0,0-.4-1.1Z" style="fill:#8b5d54"/><path d="M236,199.1a4.9,4.9,0,0,1-2.4-1.3,7.1,7.1,0,0,1-1.5-2.6,8.6,8.6,0,0,1-.3-1.7c-.1-.3-.1-.6-.3-.8a.9.9,0,0,0-.6-.4,16.5,16.5,0,0,1-3.2-1.8,5.3,5.3,0,0,1-1.7-2.4,2.9,2.9,0,0,1-.2-2,1.4,1.4,0,0,1,.3-.7,2.4,2.4,0,0,0-.1.7,3.5,3.5,0,0,0,.3,1.9,5.5,5.5,0,0,0,1.7,2.1,15.4,15.4,0,0,0,3.1,1.7,1.5,1.5,0,0,1,.9.7,3.2,3.2,0,0,1,.3.9,8.6,8.6,0,0,0,.3,1.7,8.4,8.4,0,0,0,1.3,2.5A8.8,8.8,0,0,0,236,199.1Z" style="fill:#8b5d54"/><path d="M260.9,292.1l6.1-4.8a2.7,2.7,0,0,1,.3,3.6,16.8,16.8,0,0,1-3.4,3.9s.2,3.7-1,6-6.1.6-6.1.6S255.3,296.2,260.9,292.1Z" style="fill:#ffbe9d"/><path d="M270.3,298.3a8.6,8.6,0,0,1-3,3,3.1,3.1,0,0,1-1.9.2,1.3,1.3,0,0,1-1.1-1.1,2,2,0,0,1,.6-1.2l2.4-2.6a11.3,11.3,0,0,1-1,1.3,1.6,1.6,0,0,1-1.4.5.9.9,0,0,1-1-1,1.3,1.3,0,0,1,.4-.9l3-4.5" style="fill:#ffbe9d"/><path d="M270.3,300.4a6.8,6.8,0,0,1-2.9,2.9,1.9,1.9,0,0,1-1.6.3,1.3,1.3,0,0,1-1-1,1.4,1.4,0,0,1,.6-1.3" style="fill:#ffbe9d"/><path d="M265.4,301.3a1.2,1.2,0,0,0-.4,1.1,1.2,1.2,0,0,0,.7.9,1.8,1.8,0,0,0,1.4-.1,8.3,8.3,0,0,0,2.4-1.8l.8-1c.1,0-.1.5-.5,1.2a6.8,6.8,0,0,1-2.5,2.1,2.5,2.5,0,0,1-1.9.1,1.9,1.9,0,0,1-.8-1.4,1.2,1.2,0,0,1,.4-.9Z" style="fill:#eb996e"/><path d="M264.5,300.4a1.4,1.4,0,0,0,.8.6l1.2.2,1.3-.6a19.2,19.2,0,0,0,2.7-2.7,6.2,6.2,0,0,1-2.4,3.1,2.7,2.7,0,0,1-1.6.6,2.5,2.5,0,0,1-1.3-.2,1.4,1.4,0,0,1-.7-.6C264.4,300.5,264.4,300.4,264.5,300.4Z" style="fill:#eb996e"/><path d="M264.1,297.9c.1-.1.3.3.9.4a4.4,4.4,0,0,0,2.4-1,8.6,8.6,0,0,0,1.5-2.2c.3-.7.6-1.1.6-1s0,.4-.2,1.1a6.3,6.3,0,0,1-1.6,2.4,3.4,3.4,0,0,1-2.7,1,.9.9,0,0,1-.8-.4A.8.8,0,0,1,264.1,297.9Z" style="fill:#eb996e"/><path d="M261.7,301.8c-.1-.1.8-.6,1.4-1.9a4.9,4.9,0,0,0,.6-2.5c0-.5-.1-1-.1-1.5a1.7,1.7,0,0,1,0-1,1.4,1.4,0,0,1,.6-.7,16.6,16.6,0,0,0,2.3-2.3,4.4,4.4,0,0,0,.9-2.3,2.4,2.4,0,0,0-.1-1.7c-.1-.4-.3-.5-.3-.6s.3.1.5.5a3.2,3.2,0,0,1,.3,1.8,5.4,5.4,0,0,1-.9,2.6,13.6,13.6,0,0,1-2.4,2.4.7.7,0,0,0-.4.5.8.8,0,0,0,0,.7c0,.6.1,1.1.1,1.6a6.7,6.7,0,0,1-.7,2.7A3.5,3.5,0,0,1,261.7,301.8Z" style="fill:#eb996e"/><path d="M217.3,128.2a6.5,6.5,0,0,1,.3,2.6,8.1,8.1,0,0,1-.3,3,4.3,4.3,0,0,1-.9,1.6,1.9,1.9,0,0,1-.9.5,1.1,1.1,0,0,1-1.1-.2,3,3,0,0,1-1-1.7l-.3-1.7a15.7,15.7,0,0,1-.2-2.9,6.8,6.8,0,0,1,.3-2.7c.1,0,0,1,.1,2.7a14.9,14.9,0,0,0,.3,2.8l.3,1.7a3.2,3.2,0,0,0,.8,1.4,1.1,1.1,0,0,0,1.4-.3,4.6,4.6,0,0,0,.7-1.4,9.7,9.7,0,0,0,.5-2.8A17.8,17.8,0,0,1,217.3,128.2Z" style="fill:#ffb394"/><path d="M220.9,130.7c.1,0,.1.5.1,1.4a7.3,7.3,0,0,1-.8,3.5l-.7.9a1.5,1.5,0,0,1-1,.4,1.7,1.7,0,0,1-1.3-1.1,2.6,2.6,0,0,1-.1-1.5c.1,0,.1.6.4,1.4a1.4,1.4,0,0,0,1,.7c.5,0,.9-.5,1.2-1.1a9,9,0,0,0,1-3.2C220.8,131.2,220.8,130.7,220.9,130.7Z" style="fill:#ffb394"/><path d="M210,146.8c3.2-2,.6-12.8-1.4-15.4,2.1-2.2,3.1-4.6,1.6-7.3-2,2-5.4,4.5-6,10l.6,4.2Z" style="fill:#ffd6bd"/><path d="M210.8,142.3a26,26,0,0,0,.3-2.9,10.1,10.1,0,0,0-2.2-6.4l-1-1.1-.3-.2.3-.2a6.3,6.3,0,0,0,2.6-4.9,7.2,7.2,0,0,0-.3-2.3c.1,0,.2.1.3.5a6,6,0,0,1,.4,1.8,5.8,5.8,0,0,1-.6,2.7,6.4,6.4,0,0,1-2.1,2.6v-.4l1.1,1.2a10.1,10.1,0,0,1,2.2,6.7,8.7,8.7,0,0,1-.4,2.2A1.4,1.4,0,0,1,210.8,142.3Z" style="fill:#ffb394"/></g></svg>